<?xml version="1.0" encoding="UTF-8" standalone="no"?>
<!DOCTYPE svg PUBLIC "-//W3C//DTD SVG 1.1//EN"
 "http://www.w3.org/Graphics/SVG/1.1/DTD/svg11.dtd">
<!-- Generated by graphviz version 6.0.0 (20220910.1538)
 -->
<!-- Title: A Pages: 1 -->
<svg width="1567pt" height="1050pt"
 viewBox="0.00 0.00 1566.78 1049.53" xmlns="http://www.w3.org/2000/svg" xmlns:xlink="http://www.w3.org/1999/xlink">
<g id="graph0" class="graph" transform="scale(1 1) rotate(0) translate(4 1045.53)">
<title>A</title>
<polygon fill="#222222" stroke="none" points="-4,4 -4,-1045.53 1562.78,-1045.53 1562.78,4 -4,4"/>
<!-- main_profile -->
<g id="node1" class="node">
<title>main_profile</title>
<ellipse fill="none" stroke="white" cx="768.3" cy="-537.72" rx="94.51" ry="18.27"/>
<text text-anchor="middle" x="768.3" y="-533.92" font-family="monospace" font-size="16.00" fill="white">main_profile</text>
</g>
<!-- font -->
<g id="node2" class="node">
<title>font</title>
<ellipse fill="none" stroke="white" cx="784.7" cy="-451.93" rx="39.7" ry="18.27"/>
<text text-anchor="middle" x="784.7" y="-448.13" font-family="monospace" font-size="16.00" fill="white">font</text>
</g>
<!-- main_profile&#45;&gt;font -->
<g id="edge1" class="edge">
<title>main_profile&#45;&gt;font</title>
<path fill="none" stroke="white" d="M771.86,-519.11C774.01,-507.86 776.79,-493.3 779.22,-480.62"/>
<polygon fill="white" stroke="white" points="782.71,-480.99 781.15,-470.51 775.83,-479.68 782.71,-480.99"/>
</g>
<!-- rc -->
<g id="node3" class="node">
<title>rc</title>
<ellipse fill="none" stroke="white" cx="687.08" cy="-367.58" rx="27" ry="18.27"/>
<text text-anchor="middle" x="687.08" y="-363.78" font-family="monospace" font-size="16.00" fill="white">rc</text>
</g>
<!-- main_profile&#45;&gt;rc -->
<g id="edge2" class="edge">
<title>main_profile&#45;&gt;rc</title>
<path fill="none" stroke="white" d="M759.45,-519.19C745.02,-488.96 716.37,-428.92 699.77,-394.16"/>
<polygon fill="white" stroke="white" points="702.9,-392.58 695.43,-385.07 696.58,-395.6 702.9,-392.58"/>
</g>
<!-- main_shell -->
<g id="node4" class="node">
<title>main_shell</title>
<ellipse fill="none" stroke="white" cx="480.76" cy="-521.89" rx="80.72" ry="18.27"/>
<text text-anchor="middle" x="480.76" y="-518.09" font-family="monospace" font-size="16.00" fill="white">main_shell</text>
</g>
<!-- main_profile&#45;&gt;main_shell -->
<g id="edge3" class="edge">
<title>main_profile&#45;&gt;main_shell</title>
<path fill="none" stroke="white" d="M676.92,-532.69C642.65,-530.8 603.77,-528.66 569.71,-526.79"/>
<polygon fill="white" stroke="white" points="569.49,-523.27 559.31,-526.21 569.1,-530.26 569.49,-523.27"/>
</g>
<!-- main_desktop -->
<g id="node5" class="node">
<title>main_desktop</title>
<ellipse fill="none" stroke="white" cx="1055.55" cy="-604.67" rx="94.51" ry="18.27"/>
<text text-anchor="middle" x="1055.55" y="-600.87" font-family="monospace" font-size="16.00" fill="white">main_desktop</text>
</g>
<!-- main_profile&#45;&gt;main_desktop -->
<g id="edge4" class="edge">
<title>main_profile&#45;&gt;main_desktop</title>
<path fill="none" stroke="white" d="M829.22,-551.92C874.73,-562.52 937.04,-577.05 984.77,-588.17"/>
<polygon fill="white" stroke="white" points="984.18,-591.63 994.72,-590.49 985.77,-584.81 984.18,-591.63"/>
</g>
<!-- g_git@github.com:junosuarez/font.git -->
<g id="node6" class="node">
<title>g_git@github.com:junosuarez/font.git</title>
<polygon fill="none" stroke="white" points="981.01,-324.55 779.01,-324.55 779.01,-288.55 981.01,-288.55 981.01,-324.55"/>
<polygon fill="none" stroke="white" points="985.01,-328.55 775.01,-328.55 775.01,-284.55 985.01,-284.55 985.01,-328.55"/>
<text text-anchor="middle" x="880.01" y="-302.75" font-family="monospace" font-size="16.00" fill="white">git:junosuarez/font</text>
</g>
<!-- font&#45;&gt;g_git@github.com:junosuarez/font.git -->
<g id="edge5" class="edge">
<title>font&#45;&gt;g_git@github.com:junosuarez/font.git</title>
<path fill="none" stroke="white" d="M796.39,-434.11C812.15,-410.06 840.48,-366.85 859.75,-337.45"/>
<polygon fill="white" stroke="white" points="862.86,-339.09 865.42,-328.81 857.01,-335.25 862.86,-339.09"/>
</g>
<!-- git -->
<g id="node7" class="node">
<title>git</title>
<ellipse fill="none" stroke="white" cx="525.93" cy="-300.53" rx="32.55" ry="18.27"/>
<text text-anchor="middle" x="525.93" y="-296.73" font-family="monospace" font-size="16.00" fill="white">git</text>
</g>
<!-- rc&#45;&gt;git -->
<g id="edge6" class="edge">
<title>rc&#45;&gt;git</title>
<path fill="none" stroke="white" d="M664,-357.97C637.29,-346.86 593.02,-328.44 561.82,-315.46"/>
<polygon fill="white" stroke="white" points="562.77,-312.06 552.19,-311.45 560.08,-318.52 562.77,-312.06"/>
</g>
<!-- main_shell&#45;&gt;git -->
<g id="edge7" class="edge">
<title>main_shell&#45;&gt;git</title>
<path fill="none" stroke="white" d="M484.53,-503.4C492.44,-464.64 510.8,-374.71 520.18,-328.71"/>
<polygon fill="white" stroke="white" points="523.63,-329.31 522.2,-318.81 516.77,-327.91 523.63,-329.31"/>
</g>
<!-- kitty -->
<g id="node8" class="node">
<title>kitty</title>
<ellipse fill="none" stroke="white" cx="624.3" cy="-589.54" rx="45.92" ry="18.27"/>
<text text-anchor="middle" x="624.3" y="-585.74" font-family="monospace" font-size="16.00" fill="white">kitty</text>
</g>
<!-- main_shell&#45;&gt;kitty -->
<g id="edge8" class="edge">
<title>main_shell&#45;&gt;kitty</title>
<path fill="none" stroke="white" d="M515.87,-538.44C536.84,-548.32 563.51,-560.89 585.15,-571.09"/>
<polygon fill="white" stroke="white" points="583.86,-574.35 594.39,-575.45 586.84,-568.02 583.86,-574.35"/>
</g>
<!-- prompt -->
<g id="node9" class="node">
<title>prompt</title>
<ellipse fill="none" stroke="white" cx="315.26" cy="-329.39" rx="53.07" ry="18.27"/>
<text text-anchor="middle" x="315.26" y="-325.59" font-family="monospace" font-size="16.00" fill="white">prompt</text>
</g>
<!-- main_shell&#45;&gt;prompt -->
<g id="edge9" class="edge">
<title>main_shell&#45;&gt;prompt</title>
<path fill="none" stroke="white" d="M465.19,-503.78C435.59,-469.35 371.14,-394.39 337.19,-354.9"/>
<polygon fill="white" stroke="white" points="339.6,-352.34 330.43,-347.04 334.29,-356.9 339.6,-352.34"/>
</g>
<!-- vim -->
<g id="node10" class="node">
<title>vim</title>
<ellipse fill="none" stroke="white" cx="615.03" cy="-455.05" rx="32.55" ry="18.27"/>
<text text-anchor="middle" x="615.03" y="-451.25" font-family="monospace" font-size="16.00" fill="white">vim</text>
</g>
<!-- main_shell&#45;&gt;vim -->
<g id="edge10" class="edge">
<title>main_shell&#45;&gt;vim</title>
<path fill="none" stroke="white" d="M514.64,-505.02C535.03,-494.88 560.89,-482 581.26,-471.86"/>
<polygon fill="white" stroke="white" points="583.08,-474.86 590.48,-467.27 579.96,-468.6 583.08,-474.86"/>
</g>
<!-- utils -->
<g id="node11" class="node">
<title>utils</title>
<ellipse fill="none" stroke="white" cx="270.57" cy="-814.01" rx="45.92" ry="18.27"/>
<text text-anchor="middle" x="270.57" y="-810.21" font-family="monospace" font-size="16.00" fill="white">utils</text>
</g>
<!-- main_shell&#45;&gt;utils -->
<g id="edge11" class="edge">
<title>main_shell&#45;&gt;utils</title>
<path fill="none" stroke="white" d="M467.61,-540.16C431.62,-590.18 331.4,-729.48 289.43,-787.8"/>
<polygon fill="white" stroke="white" points="286.44,-785.96 283.44,-796.12 292.13,-790.05 286.44,-785.96"/>
</g>
<!-- hotkeys -->
<g id="node12" class="node">
<title>hotkeys</title>
<ellipse fill="none" stroke="white" cx="1135.48" cy="-821.64" rx="60.21" ry="18.27"/>
<text text-anchor="middle" x="1135.48" y="-817.84" font-family="monospace" font-size="16.00" fill="white">hotkeys</text>
</g>
<!-- main_desktop&#45;&gt;hotkeys -->
<g id="edge12" class="edge">
<title>main_desktop&#45;&gt;hotkeys</title>
<path fill="none" stroke="white" d="M1062.36,-623.17C1076.4,-661.28 1108.62,-748.73 1125.21,-793.75"/>
<polygon fill="white" stroke="white" points="1121.94,-795.02 1128.69,-803.19 1128.51,-792.6 1121.94,-795.02"/>
</g>
<!-- bartender -->
<g id="node13" class="node">
<title>bartender</title>
<ellipse fill="none" stroke="white" cx="1271.84" cy="-532.31" rx="73.58" ry="18.27"/>
<text text-anchor="middle" x="1271.84" y="-528.51" font-family="monospace" font-size="16.00" fill="white">bartender</text>
</g>
<!-- main_desktop&#45;&gt;bartender -->
<g id="edge13" class="edge">
<title>main_desktop&#45;&gt;bartender</title>
<path fill="none" stroke="white" d="M1103.28,-588.7C1137.17,-577.36 1182.71,-562.13 1217.91,-550.35"/>
<polygon fill="white" stroke="white" points="1219.17,-553.62 1227.54,-547.13 1216.95,-546.98 1219.17,-553.62"/>
</g>
<!-- vscode -->
<g id="node14" class="node">
<title>vscode</title>
<ellipse fill="none" stroke="white" cx="947.66" cy="-502.89" rx="53.07" ry="18.27"/>
<text text-anchor="middle" x="947.66" y="-499.09" font-family="monospace" font-size="16.00" fill="white">vscode</text>
</g>
<!-- main_desktop&#45;&gt;vscode -->
<g id="edge14" class="edge">
<title>main_desktop&#45;&gt;vscode</title>
<path fill="none" stroke="white" d="M1036.26,-586.47C1018.71,-569.92 992.67,-545.35 973.36,-527.13"/>
<polygon fill="white" stroke="white" points="975.74,-524.57 966.06,-520.25 970.94,-529.66 975.74,-524.57"/>
</g>
<!-- c_keycastr -->
<g id="node15" class="node">
<title>c_keycastr</title>
<polygon fill="#ffffff" fill-opacity="0.133333" stroke="white" points="1222.35,-520.9 1079.35,-520.9 1079.35,-484.9 1222.35,-484.9 1222.35,-520.9"/>
<text text-anchor="middle" x="1150.85" y="-499.1" font-family="monospace" font-size="16.00" fill="white">cask:keycastr</text>
</g>
<!-- main_desktop&#45;&gt;c_keycastr -->
<g id="edge15" class="edge">
<title>main_desktop&#45;&gt;c_keycastr</title>
<path fill="none" stroke="white" d="M1072.59,-586.47C1087.76,-570.27 1110.13,-546.39 1127.07,-528.3"/>
<polygon fill="white" stroke="white" points="1129.68,-530.63 1133.96,-520.94 1124.57,-525.85 1129.68,-530.63"/>
</g>
<!-- c_itsycal -->
<g id="node16" class="node">
<title>c_itsycal</title>
<polygon fill="#ffffff" fill-opacity="0.133333" stroke="white" points="1253.7,-681.24 1119.7,-681.24 1119.7,-645.24 1253.7,-645.24 1253.7,-681.24"/>
<text text-anchor="middle" x="1186.7" y="-659.44" font-family="monospace" font-size="16.00" fill="white">cask:itsycal</text>
</g>
<!-- main_desktop&#45;&gt;c_itsycal -->
<g id="edge16" class="edge">
<title>main_desktop&#45;&gt;c_itsycal</title>
<path fill="none" stroke="white" d="M1093.48,-621.61C1107.01,-627.65 1122.46,-634.55 1136.84,-640.97"/>
<polygon fill="white" stroke="white" points="1135.54,-644.23 1146.1,-645.11 1138.4,-637.83 1135.54,-644.23"/>
</g>
<!-- b_cloc -->
<g id="node17" class="node">
<title>b_cloc</title>
<polygon fill="none" stroke="white" points="632.37,-160.46 528.37,-160.46 528.37,-124.46 632.37,-124.46 632.37,-160.46"/>
<text text-anchor="middle" x="580.37" y="-138.66" font-family="monospace" font-size="16.00" fill="white">brew:cloc</text>
</g>
<!-- git&#45;&gt;b_cloc -->
<g id="edge17" class="edge">
<title>git&#45;&gt;b_cloc</title>
<path fill="none" stroke="white" d="M532.18,-282.39C541.6,-255.03 559.54,-202.94 570.67,-170.62"/>
<polygon fill="white" stroke="white" points="574.08,-171.46 574.03,-160.87 567.46,-169.19 574.08,-171.46"/>
</g>
<!-- kitty&#45;&gt;font -->
<g id="edge18" class="edge">
<title>kitty&#45;&gt;font</title>
<path fill="none" stroke="white" d="M643.96,-572.67C672.5,-548.19 725.48,-502.74 757.66,-475.13"/>
<polygon fill="white" stroke="white" points="760.06,-477.68 765.37,-468.51 755.5,-472.37 760.06,-477.68"/>
</g>
<!-- b_imagemagick -->
<g id="node18" class="node">
<title>b_imagemagick</title>
<polygon fill="none" stroke="white" points="751.06,-749.15 578.06,-749.15 578.06,-713.15 751.06,-713.15 751.06,-749.15"/>
<text text-anchor="middle" x="664.56" y="-727.35" font-family="monospace" font-size="16.00" fill="white">brew:imagemagick</text>
</g>
<!-- kitty&#45;&gt;b_imagemagick -->
<g id="edge19" class="edge">
<title>kitty&#45;&gt;b_imagemagick</title>
<path fill="none" stroke="white" d="M629.56,-608.06C636.47,-632.36 648.66,-675.24 656.67,-703.43"/>
<polygon fill="white" stroke="white" points="653.32,-704.42 659.42,-713.08 660.05,-702.51 653.32,-704.42"/>
</g>
<!-- c_kitty -->
<g id="node19" class="node">
<title>c_kitty</title>
<polygon fill="#ffffff" fill-opacity="0.133333" stroke="white" points="539.1,-651.99 425.1,-651.99 425.1,-615.99 539.1,-615.99 539.1,-651.99"/>
<text text-anchor="middle" x="482.1" y="-630.19" font-family="monospace" font-size="16.00" fill="white">cask:kitty</text>
</g>
<!-- kitty&#45;&gt;c_kitty -->
<g id="edge20" class="edge">
<title>kitty&#45;&gt;c_kitty</title>
<path fill="none" stroke="white" d="M588.05,-600.87C576.13,-604.6 562.48,-608.87 549.02,-613.07"/>
<polygon fill="white" stroke="white" points="547.79,-609.79 539.29,-616.11 549.88,-616.47 547.79,-609.79"/>
</g>
<!-- git&#45;status -->
<g id="node20" class="node">
<title>git&#45;status</title>
<ellipse fill="none" stroke="white" cx="396.44" cy="-181.91" rx="80.72" ry="18.27"/>
<text text-anchor="middle" x="396.44" y="-178.11" font-family="monospace" font-size="16.00" fill="white">git&#45;status</text>
</g>
<!-- prompt&#45;&gt;git&#45;status -->
<g id="edge21" class="edge">
<title>prompt&#45;&gt;git&#45;status</title>
<path fill="none" stroke="white" d="M325.21,-311.31C339.2,-285.91 364.78,-239.43 381.17,-209.64"/>
<polygon fill="white" stroke="white" points="384.39,-211.05 386.15,-200.61 378.26,-207.68 384.39,-211.05"/>
</g>
<!-- aqi -->
<g id="node21" class="node">
<title>aqi</title>
<ellipse fill="none" stroke="white" cx="152.92" cy="-328.15" rx="32.55" ry="18.27"/>
<text text-anchor="middle" x="152.92" y="-324.35" font-family="monospace" font-size="16.00" fill="white">aqi</text>
</g>
<!-- prompt&#45;&gt;aqi -->
<g id="edge22" class="edge">
<title>prompt&#45;&gt;aqi</title>
<path fill="none" stroke="white" d="M262.1,-328.99C240.69,-328.82 216.3,-328.63 196.02,-328.48"/>
<polygon fill="white" stroke="white" points="195.85,-324.98 185.82,-328.4 195.79,-331.98 195.85,-324.98"/>
</g>
<!-- b_starship -->
<g id="node22" class="node">
<title>b_starship</title>
<polygon fill="none" stroke="white" points="274.89,-217.69 131.89,-217.69 131.89,-181.69 274.89,-181.69 274.89,-217.69"/>
<text text-anchor="middle" x="203.39" y="-195.89" font-family="monospace" font-size="16.00" fill="white">brew:starship</text>
</g>
<!-- prompt&#45;&gt;b_starship -->
<g id="edge23" class="edge">
<title>prompt&#45;&gt;b_starship</title>
<path fill="none" stroke="white" d="M299.94,-311.63C280.82,-289.47 247.98,-251.39 225.97,-225.88"/>
<polygon fill="white" stroke="white" points="228.42,-223.36 219.24,-218.08 223.12,-227.94 228.42,-223.36"/>
</g>
<!-- vim&#45;&gt;font -->
<g id="edge24" class="edge">
<title>vim&#45;&gt;font</title>
<path fill="none" stroke="white" d="M647.74,-454.45C672.44,-454 706.77,-453.37 734.87,-452.85"/>
<polygon fill="white" stroke="white" points="734.98,-456.35 744.92,-452.66 734.86,-449.35 734.98,-456.35"/>
</g>
<!-- b_coreutils -->
<g id="node23" class="node">
<title>b_coreutils</title>
<polygon fill="none" stroke="white" points="176.18,-930.21 23.18,-930.21 23.18,-894.21 176.18,-894.21 176.18,-930.21"/>
<text text-anchor="middle" x="99.68" y="-908.41" font-family="monospace" font-size="16.00" fill="white">brew:coreutils</text>
</g>
<!-- utils&#45;&gt;b_coreutils -->
<g id="edge25" class="edge">
<title>utils&#45;&gt;b_coreutils</title>
<path fill="none" stroke="white" d="M244.24,-829.14C216.43,-845.12 172.22,-870.52 140.01,-889.03"/>
<polygon fill="white" stroke="white" points="138.19,-886.04 131.27,-894.06 141.68,-892.11 138.19,-886.04"/>
</g>
<!-- b_inetutils -->
<g id="node24" class="node">
<title>b_inetutils</title>
<polygon fill="none" stroke="white" points="153,-756.18 0,-756.18 0,-720.18 153,-720.18 153,-756.18"/>
<text text-anchor="middle" x="76.5" y="-734.38" font-family="monospace" font-size="16.00" fill="white">brew:inetutils</text>
</g>
<!-- utils&#45;&gt;b_inetutils -->
<g id="edge26" class="edge">
<title>utils&#45;&gt;b_inetutils</title>
<path fill="none" stroke="white" d="M237.65,-801.15C208.78,-789.87 166.22,-773.24 132.09,-759.9"/>
<polygon fill="white" stroke="white" points="133.29,-756.61 122.7,-756.23 130.74,-763.13 133.29,-756.61"/>
</g>
<!-- b_jid -->
<g id="node25" class="node">
<title>b_jid</title>
<polygon fill="none" stroke="white" points="186.23,-834.29 91.23,-834.29 91.23,-798.29 186.23,-798.29 186.23,-834.29"/>
<text text-anchor="middle" x="138.73" y="-812.49" font-family="monospace" font-size="16.00" fill="white">brew:jid</text>
</g>
<!-- utils&#45;&gt;b_jid -->
<g id="edge27" class="edge">
<title>utils&#45;&gt;b_jid</title>
<path fill="none" stroke="white" d="M224.46,-814.81C215.4,-814.97 205.8,-815.13 196.43,-815.3"/>
<polygon fill="white" stroke="white" points="196.31,-811.8 186.38,-815.47 196.44,-818.8 196.31,-811.8"/>
</g>
<!-- b_jq -->
<g id="node26" class="node">
<title>b_jq</title>
<polygon fill="none" stroke="white" points="248.83,-694.83 163.83,-694.83 163.83,-658.83 248.83,-658.83 248.83,-694.83"/>
<text text-anchor="middle" x="206.33" y="-673.03" font-family="monospace" font-size="16.00" fill="white">brew:jq</text>
</g>
<!-- utils&#45;&gt;b_jq -->
<g id="edge28" class="edge">
<title>utils&#45;&gt;b_jq</title>
<path fill="none" stroke="white" d="M262.04,-795.8C251.09,-772.43 232.01,-731.67 219.27,-704.47"/>
<polygon fill="white" stroke="white" points="222.3,-702.69 214.89,-695.12 215.96,-705.66 222.3,-702.69"/>
</g>
<!-- b_lsd -->
<g id="node27" class="node">
<title>b_lsd</title>
<polygon fill="none" stroke="white" points="442.84,-1000.38 347.84,-1000.38 347.84,-964.38 442.84,-964.38 442.84,-1000.38"/>
<text text-anchor="middle" x="395.34" y="-978.58" font-family="monospace" font-size="16.00" fill="white">brew:lsd</text>
</g>
<!-- utils&#45;&gt;b_lsd -->
<g id="edge29" class="edge">
<title>utils&#45;&gt;b_lsd</title>
<path fill="none" stroke="white" d="M283.69,-831.71C305.66,-861.37 350.03,-921.24 375.73,-955.92"/>
<polygon fill="white" stroke="white" points="373.07,-958.21 381.84,-964.16 378.69,-954.04 373.07,-958.21"/>
</g>
<!-- b_p7zip -->
<g id="node28" class="node">
<title>b_p7zip</title>
<polygon fill="none" stroke="white" points="373.39,-938.27 259.39,-938.27 259.39,-902.27 373.39,-902.27 373.39,-938.27"/>
<text text-anchor="middle" x="316.39" y="-916.47" font-family="monospace" font-size="16.00" fill="white">brew:p7zip</text>
</g>
<!-- utils&#45;&gt;b_p7zip -->
<g id="edge30" class="edge">
<title>utils&#45;&gt;b_p7zip</title>
<path fill="none" stroke="white" d="M278.55,-832.52C285.71,-849.13 296.32,-873.73 304.48,-892.67"/>
<polygon fill="white" stroke="white" points="301.33,-894.18 308.5,-901.98 307.75,-891.41 301.33,-894.18"/>
</g>
<!-- b_graphviz -->
<g id="node29" class="node">
<title>b_graphviz</title>
<polygon fill="none" stroke="white" points="331.95,-1041.53 188.95,-1041.53 188.95,-1005.53 331.95,-1005.53 331.95,-1041.53"/>
<text text-anchor="middle" x="260.45" y="-1019.73" font-family="monospace" font-size="16.00" fill="white">brew:graphviz</text>
</g>
<!-- utils&#45;&gt;b_graphviz -->
<g id="edge31" class="edge">
<title>utils&#45;&gt;b_graphviz</title>
<path fill="none" stroke="white" d="M269.67,-832.61C267.9,-869.35 263.93,-951.48 261.83,-995.07"/>
<polygon fill="white" stroke="white" points="258.32,-995.12 261.33,-1005.28 265.31,-995.46 258.32,-995.12"/>
</g>
<!-- b_bat -->
<g id="node30" class="node">
<title>b_bat</title>
<polygon fill="none" stroke="white" points="462.92,-853.72 367.92,-853.72 367.92,-817.72 462.92,-817.72 462.92,-853.72"/>
<text text-anchor="middle" x="415.42" y="-831.92" font-family="monospace" font-size="16.00" fill="white">brew:bat</text>
</g>
<!-- utils&#45;&gt;b_bat -->
<g id="edge32" class="edge">
<title>utils&#45;&gt;b_bat</title>
<path fill="none" stroke="white" d="M313.64,-820.47C327.46,-822.54 343,-824.87 357.69,-827.07"/>
<polygon fill="white" stroke="white" points="357.29,-830.55 367.7,-828.57 358.33,-823.62 357.29,-830.55"/>
</g>
<!-- b_fzf -->
<g id="node31" class="node">
<title>b_fzf</title>
<polygon fill="none" stroke="white" points="208.66,-1003.79 113.66,-1003.79 113.66,-967.79 208.66,-967.79 208.66,-1003.79"/>
<text text-anchor="middle" x="161.16" y="-981.99" font-family="monospace" font-size="16.00" fill="white">brew:fzf</text>
</g>
<!-- utils&#45;&gt;b_fzf -->
<g id="edge33" class="edge">
<title>utils&#45;&gt;b_fzf</title>
<path fill="none" stroke="white" d="M259.07,-832.07C239.78,-862.35 200.81,-923.53 178.29,-958.89"/>
<polygon fill="white" stroke="white" points="175.09,-957.4 172.67,-967.71 181,-961.16 175.09,-957.4"/>
</g>
<!-- c_karabiner&#45;elements -->
<g id="node32" class="node">
<title>c_karabiner&#45;elements</title>
<polygon fill="#ffffff" fill-opacity="0.133333" stroke="white" points="1265.38,-943.45 1024.38,-943.45 1024.38,-907.45 1265.38,-907.45 1265.38,-943.45"/>
<text text-anchor="middle" x="1144.88" y="-921.65" font-family="monospace" font-size="16.00" fill="white">cask:karabiner&#45;elements</text>
</g>
<!-- hotkeys&#45;&gt;c_karabiner&#45;elements -->
<g id="edge34" class="edge">
<title>hotkeys&#45;&gt;c_karabiner&#45;elements</title>
<path fill="none" stroke="white" d="M1137.16,-840.2C1138.6,-856.09 1140.7,-879.22 1142.34,-897.38"/>
<polygon fill="white" stroke="white" points="1138.86,-897.76 1143.25,-907.4 1145.83,-897.12 1138.86,-897.76"/>
</g>
<!-- c_hammerspoon -->
<g id="node33" class="node">
<title>c_hammerspoon</title>
<polygon fill="#ffffff" fill-opacity="0.133333" stroke="white" points="1376.81,-907.26 1203.81,-907.26 1203.81,-871.26 1376.81,-871.26 1376.81,-907.26"/>
<text text-anchor="middle" x="1290.31" y="-885.46" font-family="monospace" font-size="16.00" fill="white">cask:hammerspoon</text>
</g>
<!-- hotkeys&#45;&gt;c_hammerspoon -->
<g id="edge35" class="edge">
<title>hotkeys&#45;&gt;c_hammerspoon</title>
<path fill="none" stroke="white" d="M1170.23,-836.82C1190.76,-845.79 1217.11,-857.29 1239.9,-867.25"/>
<polygon fill="white" stroke="white" points="1238.53,-870.46 1249.09,-871.26 1241.33,-864.05 1238.53,-870.46"/>
</g>
<!-- g_git@github.com:Hammerspoon/Spoons.git -->
<g id="node34" class="node">
<title>g_git@github.com:Hammerspoon/Spoons.git</title>
<polygon fill="none" stroke="white" points="1188.8,-1010.3 957.8,-1010.3 957.8,-974.3 1188.8,-974.3 1188.8,-1010.3"/>
<polygon fill="none" stroke="white" points="1192.8,-1014.3 953.8,-1014.3 953.8,-970.3 1192.8,-970.3 1192.8,-1014.3"/>
<text text-anchor="middle" x="1073.3" y="-988.5" font-family="monospace" font-size="16.00" fill="white">git:Hammerspoon/Spoons</text>
</g>
<!-- hotkeys&#45;&gt;g_git@github.com:Hammerspoon/Spoons.git -->
<g id="edge36" class="edge">
<title>hotkeys&#45;&gt;g_git@github.com:Hammerspoon/Spoons.git</title>
<path fill="none" stroke="white" d="M1128.71,-840.23C1118.2,-869.09 1097.82,-925.02 1084.92,-960.41"/>
<polygon fill="white" stroke="white" points="1081.47,-959.66 1081.34,-970.25 1088.05,-962.05 1081.47,-959.66"/>
</g>
<!-- g_git@github.com:junosuarez/rcbartender.git -->
<g id="node35" class="node">
<title>g_git@github.com:junosuarez/rcbartender.git</title>
<polygon fill="none" stroke="white" points="1554.78,-493.51 1284.78,-493.51 1284.78,-457.51 1554.78,-457.51 1554.78,-493.51"/>
<polygon fill="none" stroke="white" points="1558.78,-497.51 1280.78,-497.51 1280.78,-453.51 1558.78,-453.51 1558.78,-497.51"/>
<text text-anchor="middle" x="1419.78" y="-471.71" font-family="monospace" font-size="16.00" fill="white">git:junosuarez/rcbartender</text>
</g>
<!-- bartender&#45;&gt;g_git@github.com:junosuarez/rcbartender.git -->
<g id="edge37" class="edge">
<title>bartender&#45;&gt;g_git@github.com:junosuarez/rcbartender.git</title>
<path fill="none" stroke="white" d="M1312.26,-516.79C1324.78,-511.99 1338.91,-506.56 1352.72,-501.26"/>
<polygon fill="white" stroke="white" points="1354.13,-504.47 1362.21,-497.61 1351.62,-497.93 1354.13,-504.47"/>
</g>
<!-- vscode&#45;&gt;font -->
<g id="edge38" class="edge">
<title>vscode&#45;&gt;font</title>
<path fill="none" stroke="white" d="M908.21,-490.55C883.77,-482.91 852.36,-473.09 827.34,-465.27"/>
<polygon fill="white" stroke="white" points="828.33,-461.91 817.75,-462.27 826.24,-468.59 828.33,-461.91"/>
</g>
<!-- git&#45;status&#45;&gt;git -->
<g id="edge39" class="edge">
<title>git&#45;status&#45;&gt;git</title>
<path fill="none" stroke="white" d="M416.11,-199.92C438.84,-220.74 476.28,-255.04 501.02,-277.71"/>
<polygon fill="white" stroke="white" points="498.84,-280.45 508.58,-284.63 503.57,-275.29 498.84,-280.45"/>
</g>
<!-- b_romkatv/gitstatus/gitstatus -->
<g id="node36" class="node">
<title>b_romkatv/gitstatus/gitstatus</title>
<polygon fill="none" stroke="white" points="546.01,-36 217.01,-36 217.01,0 546.01,0 546.01,-36"/>
<text text-anchor="middle" x="381.51" y="-14.2" font-family="monospace" font-size="16.00" fill="white">brew:romkatv/gitstatus/gitstatus</text>
</g>
<!-- git&#45;status&#45;&gt;b_romkatv/gitstatus/gitstatus -->
<g id="edge40" class="edge">
<title>git&#45;status&#45;&gt;b_romkatv/gitstatus/gitstatus</title>
<path fill="none" stroke="white" d="M394.76,-163.42C392.16,-134.87 387.14,-79.82 384.08,-46.25"/>
<polygon fill="white" stroke="white" points="387.56,-45.81 383.17,-36.17 380.59,-46.44 387.56,-45.81"/>
</g>
</g>
</svg>
