<?xml version="1.0" encoding="UTF-8" standalone="no"?>
<!DOCTYPE svg PUBLIC "-//W3C//DTD SVG 1.1//EN"
 "http://www.w3.org/Graphics/SVG/1.1/DTD/svg11.dtd">
<!-- Generated by graphviz version 6.0.0 (20220910.1538)
 -->
<!-- Title: A Pages: 1 -->
<svg width="1414pt" height="1846pt"
 viewBox="0.00 0.00 1414.00 1846.00" xmlns="http://www.w3.org/2000/svg" xmlns:xlink="http://www.w3.org/1999/xlink">
<g id="graph0" class="graph" transform="scale(1 1) rotate(0) translate(4 1842)">
<title>A</title>
<polygon fill="#222222" stroke="none" points="-4,4 -4,-1842 1410,-1842 1410,4 -4,4"/>
<g id="clust23" class="cluster">
<title>cluster_legend</title>
<polygon fill="#ffffff" fill-opacity="0.266667" stroke="#ffffff" stroke-opacity="0.266667" points="1116.24,-1116.14 1116.24,-1263.14 1278.24,-1263.14 1278.24,-1116.14 1116.24,-1116.14"/>
<text text-anchor="middle" x="1197.24" y="-1247.94" font-family="Courier,monospace" font-size="14.00" fill="white">key</text>
</g>
<!-- main_profile -->
<g id="node1" class="node">
<title>main_profile</title>
<ellipse fill="none" stroke="white" cx="894.9" cy="-880.45" rx="94.51" ry="18.27"/>
<text text-anchor="middle" x="894.9" y="-876.65" font-family="monospace" font-size="16.00" fill="white">main_profile</text>
</g>
<!-- font -->
<g id="node2" class="node">
<title>font</title>
<ellipse fill="none" stroke="white" cx="737.7" cy="-874.68" rx="39.7" ry="18.27"/>
<text text-anchor="middle" x="737.7" y="-870.88" font-family="monospace" font-size="16.00" fill="white">font</text>
</g>
<!-- main_profile&#45;&gt;font -->
<g id="edge1" class="edge">
<title>main_profile&#45;&gt;font</title>
<path fill="none" stroke="white" d="M801.64,-877.03C796.88,-876.86 792.19,-876.68 787.66,-876.52"/>
<polygon fill="white" stroke="white" points="787.49,-873.01 777.37,-876.14 787.23,-880 787.49,-873.01"/>
</g>
<!-- rc -->
<g id="node3" class="node">
<title>rc</title>
<ellipse fill="none" stroke="white" cx="701.64" cy="-697.38" rx="27" ry="18.27"/>
<text text-anchor="middle" x="701.64" y="-693.58" font-family="monospace" font-size="16.00" fill="white">rc</text>
</g>
<!-- main_profile&#45;&gt;rc -->
<g id="edge2" class="edge">
<title>main_profile&#45;&gt;rc</title>
<path fill="none" stroke="white" d="M875.66,-862.23C840.01,-828.46 763.78,-756.25 725.14,-719.65"/>
<polygon fill="white" stroke="white" points="727.16,-716.74 717.49,-712.4 722.34,-721.82 727.16,-716.74"/>
</g>
<!-- main_shell -->
<g id="node4" class="node">
<title>main_shell</title>
<ellipse fill="none" stroke="white" cx="881.61" cy="-506.33" rx="80.72" ry="18.27"/>
<text text-anchor="middle" x="881.61" y="-502.53" font-family="monospace" font-size="16.00" fill="white">main_shell</text>
</g>
<!-- main_profile&#45;&gt;main_shell -->
<g id="edge3" class="edge">
<title>main_profile&#45;&gt;main_shell</title>
<path fill="none" stroke="white" d="M894.24,-861.9C892.09,-801.32 885.25,-608.96 882.64,-535.36"/>
<polygon fill="white" stroke="white" points="886.12,-534.86 882.27,-524.99 879.13,-535.11 886.12,-534.86"/>
</g>
<!-- main_desktop -->
<g id="node5" class="node">
<title>main_desktop</title>
<ellipse fill="none" stroke="white" cx="878.35" cy="-1281.45" rx="94.51" ry="18.27"/>
<text text-anchor="middle" x="878.35" y="-1277.65" font-family="monospace" font-size="16.00" fill="white">main_desktop</text>
</g>
<!-- main_profile&#45;&gt;main_desktop -->
<g id="edge4" class="edge">
<title>main_profile&#45;&gt;main_desktop</title>
<path fill="none" stroke="white" d="M894.13,-898.99C891.49,-962.98 882.74,-1174.95 879.54,-1252.61"/>
<polygon fill="white" stroke="white" points="876.04,-1252.51 879.12,-1262.65 883.03,-1252.8 876.04,-1252.51"/>
</g>
<!-- g_git@github.com:junosuarez/font.git -->
<g id="node6" class="node">
<title>g_git@github.com:junosuarez/font.git</title>
<polygon fill="none" stroke="white" points="611.26,-984.15 448.26,-984.15 448.26,-948.15 611.26,-948.15 611.26,-984.15"/>
<polygon fill="none" stroke="white" points="615.26,-988.15 444.26,-988.15 444.26,-944.15 615.26,-944.15 615.26,-988.15"/>
<text text-anchor="middle" x="529.76" y="-962.35" font-family="monospace" font-size="16.00" fill="white">junosuarez/font</text>
</g>
<!-- font&#45;&gt;g_git@github.com:junosuarez/font.git -->
<g id="edge5" class="edge">
<title>font&#45;&gt;g_git@github.com:junosuarez/font.git</title>
<path fill="none" stroke="white" d="M708.79,-887.4C678,-900.94 628.41,-922.76 589.22,-940"/>
<polygon fill="white" stroke="white" points="587.76,-936.82 580.01,-944.05 590.58,-943.22 587.76,-936.82"/>
</g>
<!-- git -->
<g id="node7" class="node">
<title>git</title>
<ellipse fill="none" stroke="white" cx="640.63" cy="-528.22" rx="32.55" ry="18.27"/>
<text text-anchor="middle" x="640.63" y="-524.42" font-family="monospace" font-size="16.00" fill="white">git</text>
</g>
<!-- rc&#45;&gt;git -->
<g id="edge6" class="edge">
<title>rc&#45;&gt;git</title>
<path fill="none" stroke="white" d="M695.11,-679.28C684.45,-649.72 663.24,-590.91 650.66,-556.03"/>
<polygon fill="white" stroke="white" points="653.89,-554.67 647.2,-546.45 647.3,-557.04 653.89,-554.67"/>
</g>
<!-- main_shell&#45;&gt;git -->
<g id="edge7" class="edge">
<title>main_shell&#45;&gt;git</title>
<path fill="none" stroke="white" d="M806.68,-513.14C765.99,-516.83 717.16,-521.27 683.03,-524.37"/>
<polygon fill="white" stroke="white" points="682.58,-520.9 672.93,-525.29 683.21,-527.87 682.58,-520.9"/>
</g>
<!-- kitty -->
<g id="node8" class="node">
<title>kitty</title>
<ellipse fill="none" stroke="white" cx="937.97" cy="-755.53" rx="45.92" ry="18.27"/>
<text text-anchor="middle" x="937.97" y="-751.73" font-family="monospace" font-size="16.00" fill="white">kitty</text>
</g>
<!-- main_shell&#45;&gt;kitty -->
<g id="edge8" class="edge">
<title>main_shell&#45;&gt;kitty</title>
<path fill="none" stroke="white" d="M885.84,-525.06C895.64,-568.37 919.91,-675.67 931.54,-727.12"/>
<polygon fill="white" stroke="white" points="928.14,-727.94 933.76,-736.92 934.97,-726.39 928.14,-727.94"/>
</g>
<!-- prompt -->
<g id="node9" class="node">
<title>prompt</title>
<ellipse fill="none" stroke="white" cx="667.82" cy="-294.8" rx="53.07" ry="18.27"/>
<text text-anchor="middle" x="667.82" y="-291" font-family="monospace" font-size="16.00" fill="white">prompt</text>
</g>
<!-- main_shell&#45;&gt;prompt -->
<g id="edge9" class="edge">
<title>main_shell&#45;&gt;prompt</title>
<path fill="none" stroke="white" d="M863.38,-488.29C825.09,-450.4 736.23,-362.49 692.73,-319.44"/>
<polygon fill="white" stroke="white" points="694.97,-316.74 685.4,-312.19 690.05,-321.71 694.97,-316.74"/>
</g>
<!-- vim -->
<g id="node10" class="node">
<title>vim</title>
<ellipse fill="none" stroke="white" cx="808.98" cy="-706.79" rx="32.55" ry="18.27"/>
<text text-anchor="middle" x="808.98" y="-702.99" font-family="monospace" font-size="16.00" fill="white">vim</text>
</g>
<!-- main_shell&#45;&gt;vim -->
<g id="edge10" class="edge">
<title>main_shell&#45;&gt;vim</title>
<path fill="none" stroke="white" d="M874.9,-524.83C862.09,-560.2 834.05,-637.58 819,-679.12"/>
<polygon fill="white" stroke="white" points="815.67,-678.03 815.56,-688.62 822.26,-680.41 815.67,-678.03"/>
</g>
<!-- utils -->
<g id="node11" class="node">
<title>utils</title>
<ellipse fill="none" stroke="white" cx="1123.19" cy="-213.33" rx="45.92" ry="18.27"/>
<text text-anchor="middle" x="1123.19" y="-209.53" font-family="monospace" font-size="16.00" fill="white">utils</text>
</g>
<!-- main_shell&#45;&gt;utils -->
<g id="edge11" class="edge">
<title>main_shell&#45;&gt;utils</title>
<path fill="none" stroke="white" d="M896.72,-488C938.27,-437.61 1054.3,-296.88 1102.15,-238.84"/>
<polygon fill="white" stroke="white" points="1105.03,-240.84 1108.69,-230.9 1099.63,-236.39 1105.03,-240.84"/>
</g>
<!-- window_mgr -->
<g id="node12" class="node">
<title>window_mgr</title>
<ellipse fill="none" stroke="white" cx="610.39" cy="-1467.78" rx="80.72" ry="18.27"/>
<text text-anchor="middle" x="610.39" y="-1463.98" font-family="monospace" font-size="16.00" fill="white">window_mgr</text>
</g>
<!-- main_desktop&#45;&gt;window_mgr -->
<g id="edge12" class="edge">
<title>main_desktop&#45;&gt;window_mgr</title>
<path fill="none" stroke="white" d="M852.65,-1299.32C803.91,-1333.21 698.06,-1406.81 643.85,-1444.51"/>
<polygon fill="white" stroke="white" points="641.82,-1441.66 635.61,-1450.24 645.82,-1447.4 641.82,-1441.66"/>
</g>
<!-- hotkeys -->
<g id="node13" class="node">
<title>hotkeys</title>
<ellipse fill="none" stroke="white" cx="1090.64" cy="-1552.27" rx="60.21" ry="18.27"/>
<text text-anchor="middle" x="1090.64" y="-1548.47" font-family="monospace" font-size="16.00" fill="white">hotkeys</text>
</g>
<!-- main_desktop&#45;&gt;hotkeys -->
<g id="edge13" class="edge">
<title>main_desktop&#45;&gt;hotkeys</title>
<path fill="none" stroke="white" d="M892.6,-1299.64C929.31,-1346.47 1027.19,-1471.34 1070.05,-1526.01"/>
<polygon fill="white" stroke="white" points="1067.51,-1528.45 1076.44,-1534.16 1073.02,-1524.13 1067.51,-1528.45"/>
</g>
<!-- bartender -->
<g id="node14" class="node">
<title>bartender</title>
<ellipse fill="none" stroke="white" cx="752.84" cy="-1522.53" rx="73.58" ry="18.27"/>
<text text-anchor="middle" x="752.84" y="-1518.73" font-family="monospace" font-size="16.00" fill="white">bartender</text>
</g>
<!-- main_desktop&#45;&gt;bartender -->
<g id="edge14" class="edge">
<title>main_desktop&#45;&gt;bartender</title>
<path fill="none" stroke="white" d="M868.71,-1299.97C846.75,-1342.14 792.93,-1445.52 767.11,-1495.12"/>
<polygon fill="white" stroke="white" points="763.85,-1493.8 762.34,-1504.28 770.06,-1497.03 763.85,-1493.8"/>
</g>
<!-- vscode -->
<g id="node15" class="node">
<title>vscode</title>
<ellipse fill="none" stroke="white" cx="765.37" cy="-1084.13" rx="53.07" ry="18.27"/>
<text text-anchor="middle" x="765.37" y="-1080.33" font-family="monospace" font-size="16.00" fill="white">vscode</text>
</g>
<!-- main_desktop&#45;&gt;vscode -->
<g id="edge15" class="edge">
<title>main_desktop&#45;&gt;vscode</title>
<path fill="none" stroke="white" d="M867.72,-1262.89C847.64,-1227.82 804.07,-1151.72 780.78,-1111.04"/>
<polygon fill="white" stroke="white" points="783.73,-1109.16 775.72,-1102.22 777.66,-1112.64 783.73,-1109.16"/>
</g>
<!-- c_keycastr -->
<g id="node16" class="node">
<title>c_keycastr</title>
<polygon fill="#ffffff" fill-opacity="0.133333" stroke="white" points="1000.59,-1563.56 837.59,-1563.56 837.59,-1527.56 1000.59,-1527.56 1000.59,-1563.56"/>
<text text-anchor="middle" x="919.09" y="-1541.76" font-family="monospace" font-size="16.00" fill="white">keycastr (cask)</text>
</g>
<!-- main_desktop&#45;&gt;c_keycastr -->
<g id="edge16" class="edge">
<title>main_desktop&#45;&gt;c_keycastr</title>
<path fill="none" stroke="white" d="M881.21,-1300.02C888.24,-1345.59 906.38,-1463.17 914.75,-1517.4"/>
<polygon fill="white" stroke="white" points="911.3,-1518.01 916.29,-1527.36 918.22,-1516.94 911.3,-1518.01"/>
</g>
<!-- b_cloc -->
<g id="node17" class="node">
<title>b_cloc</title>
<polygon fill="none" stroke="white" points="495.97,-563.71 439.97,-563.71 439.97,-527.71 495.97,-527.71 495.97,-563.71"/>
<text text-anchor="middle" x="467.97" y="-541.91" font-family="monospace" font-size="16.00" fill="white">cloc</text>
</g>
<!-- git&#45;&gt;b_cloc -->
<g id="edge17" class="edge">
<title>git&#45;&gt;b_cloc</title>
<path fill="none" stroke="white" d="M608.56,-531.47C579.68,-534.39 537.19,-538.7 506.48,-541.81"/>
<polygon fill="white" stroke="white" points="505.75,-538.36 496.15,-542.85 506.45,-545.33 505.75,-538.36"/>
</g>
<!-- kitty&#45;&gt;font -->
<g id="edge18" class="edge">
<title>kitty&#45;&gt;font</title>
<path fill="none" stroke="white" d="M912.2,-770.86C876.13,-792.32 810.58,-831.32 770.9,-854.93"/>
<polygon fill="white" stroke="white" points="768.93,-852.03 762.12,-860.15 772.5,-858.05 768.93,-852.03"/>
</g>
<!-- b_imagemagick -->
<g id="node18" class="node">
<title>b_imagemagick</title>
<polygon fill="none" stroke="white" points="1213.68,-784.82 1089.68,-784.82 1089.68,-748.82 1213.68,-748.82 1213.68,-784.82"/>
<text text-anchor="middle" x="1151.68" y="-763.02" font-family="monospace" font-size="16.00" fill="white">imagemagick</text>
</g>
<!-- kitty&#45;&gt;b_imagemagick -->
<g id="edge19" class="edge">
<title>kitty&#45;&gt;b_imagemagick</title>
<path fill="none" stroke="white" d="M983.55,-757.94C1011.43,-759.41 1047.7,-761.33 1079.42,-763"/>
<polygon fill="white" stroke="white" points="1079.37,-766.51 1089.54,-763.54 1079.74,-759.52 1079.37,-766.51"/>
</g>
<!-- c_kitty -->
<g id="node19" class="node">
<title>c_kitty</title>
<polygon fill="#ffffff" fill-opacity="0.133333" stroke="white" points="1180.68,-912.37 1046.68,-912.37 1046.68,-876.37 1180.68,-876.37 1180.68,-912.37"/>
<text text-anchor="middle" x="1113.68" y="-890.57" font-family="monospace" font-size="16.00" fill="white">kitty (cask)</text>
</g>
<!-- kitty&#45;&gt;c_kitty -->
<g id="edge20" class="edge">
<title>kitty&#45;&gt;c_kitty</title>
<path fill="none" stroke="white" d="M958.81,-772C989.45,-796.21 1046.85,-841.56 1082.51,-869.73"/>
<polygon fill="white" stroke="white" points="1080.62,-872.7 1090.64,-876.16 1084.96,-867.21 1080.62,-872.7"/>
</g>
<!-- git&#45;status -->
<g id="node20" class="node">
<title>git&#45;status</title>
<ellipse fill="none" stroke="white" cx="447.04" cy="-379.4" rx="80.72" ry="18.27"/>
<text text-anchor="middle" x="447.04" y="-375.6" font-family="monospace" font-size="16.00" fill="white">git&#45;status</text>
</g>
<!-- prompt&#45;&gt;git&#45;status -->
<g id="edge21" class="edge">
<title>prompt&#45;&gt;git&#45;status</title>
<path fill="none" stroke="white" d="M631.86,-308.58C595.54,-322.49 539.12,-344.11 498.17,-359.81"/>
<polygon fill="white" stroke="white" points="496.72,-356.61 488.63,-363.46 499.22,-363.15 496.72,-356.61"/>
</g>
<!-- aqi -->
<g id="node21" class="node">
<title>aqi</title>
<ellipse fill="none" stroke="white" cx="508.86" cy="-176.31" rx="32.55" ry="18.27"/>
<text text-anchor="middle" x="508.86" y="-172.51" font-family="monospace" font-size="16.00" fill="white">aqi</text>
</g>
<!-- prompt&#45;&gt;aqi -->
<g id="edge22" class="edge">
<title>prompt&#45;&gt;aqi</title>
<path fill="none" stroke="white" d="M645.38,-278.07C616.91,-256.85 567.79,-220.23 536.88,-197.2"/>
<polygon fill="white" stroke="white" points="538.79,-194.25 528.68,-191.08 534.6,-199.86 538.79,-194.25"/>
</g>
<!-- b_starship -->
<g id="node22" class="node">
<title>b_starship</title>
<polygon fill="none" stroke="white" points="642.07,-112.91 547.07,-112.91 547.07,-76.91 642.07,-76.91 642.07,-112.91"/>
<text text-anchor="middle" x="594.57" y="-91.11" font-family="monospace" font-size="16.00" fill="white">starship</text>
</g>
<!-- prompt&#45;&gt;b_starship -->
<g id="edge23" class="edge">
<title>prompt&#45;&gt;b_starship</title>
<path fill="none" stroke="white" d="M661.06,-276.35C648.14,-241.08 619.86,-163.92 604.68,-122.5"/>
<polygon fill="white" stroke="white" points="607.93,-121.21 601.21,-113.02 601.36,-123.62 607.93,-121.21"/>
</g>
<!-- vim&#45;&gt;font -->
<g id="edge24" class="edge">
<title>vim&#45;&gt;font</title>
<path fill="none" stroke="white" d="M801.35,-724.75C788.9,-754.09 764.12,-812.46 749.42,-847.08"/>
<polygon fill="white" stroke="white" points="746.07,-846.02 745.38,-856.59 752.51,-848.75 746.07,-846.02"/>
</g>
<!-- b_coreutils -->
<g id="node23" class="node">
<title>b_coreutils</title>
<polygon fill="none" stroke="white" points="1396.47,-284.63 1292.47,-284.63 1292.47,-248.63 1396.47,-248.63 1396.47,-284.63"/>
<text text-anchor="middle" x="1344.47" y="-262.83" font-family="monospace" font-size="16.00" fill="white">coreutils</text>
</g>
<!-- utils&#45;&gt;b_coreutils -->
<g id="edge25" class="edge">
<title>utils&#45;&gt;b_coreutils</title>
<path fill="none" stroke="white" d="M1162.75,-222.86C1195.95,-230.85 1243.98,-242.42 1282.32,-251.66"/>
<polygon fill="white" stroke="white" points="1281.8,-255.14 1292.34,-254.07 1283.44,-248.33 1281.8,-255.14"/>
</g>
<!-- b_inetutils -->
<g id="node24" class="node">
<title>b_inetutils</title>
<polygon fill="none" stroke="white" points="1405.94,-185.3 1301.94,-185.3 1301.94,-149.3 1405.94,-149.3 1405.94,-185.3"/>
<text text-anchor="middle" x="1353.94" y="-163.5" font-family="monospace" font-size="16.00" fill="white">inetutils</text>
</g>
<!-- utils&#45;&gt;b_inetutils -->
<g id="edge26" class="edge">
<title>utils&#45;&gt;b_inetutils</title>
<path fill="none" stroke="white" d="M1164.44,-205.1C1199.81,-198.04 1251.31,-187.77 1291.69,-179.71"/>
<polygon fill="white" stroke="white" points="1292.58,-183.11 1301.7,-177.72 1291.21,-176.24 1292.58,-183.11"/>
</g>
<!-- b_jid -->
<g id="node25" class="node">
<title>b_jid</title>
<polygon fill="none" stroke="white" points="1017.27,-145.34 963.27,-145.34 963.27,-109.34 1017.27,-109.34 1017.27,-145.34"/>
<text text-anchor="middle" x="990.27" y="-123.54" font-family="monospace" font-size="16.00" fill="white">jid</text>
</g>
<!-- utils&#45;&gt;b_jid -->
<g id="edge27" class="edge">
<title>utils&#45;&gt;b_jid</title>
<path fill="none" stroke="white" d="M1098.81,-197.55C1078.47,-184.4 1049.21,-165.47 1026.19,-150.58"/>
<polygon fill="white" stroke="white" points="1028,-147.58 1017.7,-145.09 1024.2,-153.46 1028,-147.58"/>
</g>
<!-- b_jq -->
<g id="node26" class="node">
<title>b_jq</title>
<polygon fill="none" stroke="white" points="1159.96,-36.07 1105.96,-36.07 1105.96,-0.07 1159.96,-0.07 1159.96,-36.07"/>
<text text-anchor="middle" x="1132.96" y="-14.27" font-family="monospace" font-size="16.00" fill="white">jq</text>
</g>
<!-- utils&#45;&gt;b_jq -->
<g id="edge28" class="edge">
<title>utils&#45;&gt;b_jq</title>
<path fill="none" stroke="white" d="M1124.12,-194.6C1125.85,-160.17 1129.53,-86.62 1131.56,-46.17"/>
<polygon fill="white" stroke="white" points="1135.05,-46.33 1132.06,-36.17 1128.06,-45.98 1135.05,-46.33"/>
</g>
<!-- b_lsd -->
<g id="node27" class="node">
<title>b_lsd</title>
<polygon fill="none" stroke="white" points="1284.24,-349.75 1230.24,-349.75 1230.24,-313.75 1284.24,-313.75 1284.24,-349.75"/>
<text text-anchor="middle" x="1257.24" y="-327.95" font-family="monospace" font-size="16.00" fill="white">lsd</text>
</g>
<!-- utils&#45;&gt;b_lsd -->
<g id="edge29" class="edge">
<title>utils&#45;&gt;b_lsd</title>
<path fill="none" stroke="white" d="M1142.39,-230.29C1165.1,-250.35 1203.07,-283.89 1229.09,-306.88"/>
<polygon fill="white" stroke="white" points="1226.94,-309.65 1236.75,-313.65 1231.58,-304.41 1226.94,-309.65"/>
</g>
<!-- b_p7zip -->
<g id="node28" class="node">
<title>b_p7zip</title>
<polygon fill="none" stroke="white" points="1319.67,-136.67 1254.67,-136.67 1254.67,-100.67 1319.67,-100.67 1319.67,-136.67"/>
<text text-anchor="middle" x="1287.17" y="-114.87" font-family="monospace" font-size="16.00" fill="white">p7zip</text>
</g>
<!-- utils&#45;&gt;b_p7zip -->
<g id="edge30" class="edge">
<title>utils&#45;&gt;b_p7zip</title>
<path fill="none" stroke="white" d="M1149.53,-198.12C1175.9,-182.9 1216.81,-159.28 1247.18,-141.75"/>
<polygon fill="white" stroke="white" points="1248.93,-144.78 1255.84,-136.75 1245.43,-138.72 1248.93,-144.78"/>
</g>
<!-- b_graphviz -->
<g id="node29" class="node">
<title>b_graphviz</title>
<polygon fill="none" stroke="white" points="1309.73,-50.08 1214.73,-50.08 1214.73,-14.08 1309.73,-14.08 1309.73,-50.08"/>
<text text-anchor="middle" x="1262.23" y="-28.28" font-family="monospace" font-size="16.00" fill="white">graphviz</text>
</g>
<!-- utils&#45;&gt;b_graphviz -->
<g id="edge31" class="edge">
<title>utils&#45;&gt;b_graphviz</title>
<path fill="none" stroke="white" d="M1136.77,-195.62C1161.32,-163.62 1213.17,-96.02 1241.93,-58.53"/>
<polygon fill="white" stroke="white" points="1245.07,-60.19 1248.38,-50.13 1239.52,-55.93 1245.07,-60.19"/>
</g>
<!-- b_bat -->
<g id="node30" class="node">
<title>b_bat</title>
<polygon fill="none" stroke="white" points="1192.8,-97.19 1138.8,-97.19 1138.8,-61.19 1192.8,-61.19 1192.8,-97.19"/>
<text text-anchor="middle" x="1165.8" y="-75.39" font-family="monospace" font-size="16.00" fill="white">bat</text>
</g>
<!-- utils&#45;&gt;b_bat -->
<g id="edge32" class="edge">
<title>utils&#45;&gt;b_bat</title>
<path fill="none" stroke="white" d="M1129.02,-194.95C1136.23,-172.28 1148.55,-133.49 1156.93,-107.11"/>
<polygon fill="white" stroke="white" points="1160.35,-107.93 1160.04,-97.33 1153.68,-105.81 1160.35,-107.93"/>
</g>
<!-- b_fzf -->
<g id="node31" class="node">
<title>b_fzf</title>
<polygon fill="none" stroke="white" points="1074.97,-70.79 1020.97,-70.79 1020.97,-34.79 1074.97,-34.79 1074.97,-70.79"/>
<text text-anchor="middle" x="1047.97" y="-48.99" font-family="monospace" font-size="16.00" fill="white">fzf</text>
</g>
<!-- utils&#45;&gt;b_fzf -->
<g id="edge33" class="edge">
<title>utils&#45;&gt;b_fzf</title>
<path fill="none" stroke="white" d="M1114.71,-195.22C1101.56,-167.16 1076.17,-112.98 1060.78,-80.13"/>
<polygon fill="white" stroke="white" points="1063.95,-78.65 1056.54,-71.08 1057.61,-81.62 1063.95,-78.65"/>
</g>
<!-- c_itsycal -->
<g id="node32" class="node">
<title>c_itsycal</title>
<polygon fill="#ffffff" fill-opacity="0.133333" stroke="white" points="513.72,-1682.88 360.72,-1682.88 360.72,-1646.88 513.72,-1646.88 513.72,-1682.88"/>
<text text-anchor="middle" x="437.22" y="-1661.08" font-family="monospace" font-size="16.00" fill="white">itsycal (cask)</text>
</g>
<!-- window_mgr&#45;&gt;c_itsycal -->
<g id="edge34" class="edge">
<title>window_mgr&#45;&gt;c_itsycal</title>
<path fill="none" stroke="white" d="M594.41,-1485.97C563.48,-1521.17 495.37,-1598.7 459.82,-1639.16"/>
<polygon fill="white" stroke="white" points="457.13,-1636.91 453.16,-1646.74 462.39,-1641.53 457.13,-1636.91"/>
</g>
<!-- c_karabiner&#45;elements -->
<g id="node33" class="node">
<title>c_karabiner&#45;elements</title>
<polygon fill="#ffffff" fill-opacity="0.133333" stroke="white" points="1397.48,-1816.9 1137.48,-1816.9 1137.48,-1780.9 1397.48,-1780.9 1397.48,-1816.9"/>
<text text-anchor="middle" x="1267.48" y="-1795.1" font-family="monospace" font-size="16.00" fill="white">karabiner&#45;elements (cask)</text>
</g>
<!-- hotkeys&#45;&gt;c_karabiner&#45;elements -->
<g id="edge35" class="edge">
<title>hotkeys&#45;&gt;c_karabiner&#45;elements</title>
<path fill="none" stroke="white" d="M1103.64,-1570.41C1134.49,-1613.43 1212.23,-1721.85 1248.41,-1772.3"/>
<polygon fill="white" stroke="white" points="1245.79,-1774.65 1254.46,-1780.74 1251.48,-1770.57 1245.79,-1774.65"/>
</g>
<!-- c_hammerspoon -->
<g id="node34" class="node">
<title>c_hammerspoon</title>
<polygon fill="#ffffff" fill-opacity="0.133333" stroke="white" points="1405.65,-1691.2 1213.65,-1691.2 1213.65,-1655.2 1405.65,-1655.2 1405.65,-1691.2"/>
<text text-anchor="middle" x="1309.65" y="-1669.4" font-family="monospace" font-size="16.00" fill="white">hammerspoon (cask)</text>
</g>
<!-- hotkeys&#45;&gt;c_hammerspoon -->
<g id="edge36" class="edge">
<title>hotkeys&#45;&gt;c_hammerspoon</title>
<path fill="none" stroke="white" d="M1120.17,-1568.58C1158.33,-1589.65 1224.95,-1626.44 1268.17,-1650.3"/>
<polygon fill="white" stroke="white" points="1266.58,-1653.42 1277.02,-1655.19 1269.96,-1647.29 1266.58,-1653.42"/>
</g>
<!-- g_git@github.com:Hammerspoon/Spoons.git -->
<g id="node35" class="node">
<title>g_git@github.com:Hammerspoon/Spoons.git</title>
<polygon fill="none" stroke="white" points="1125.28,-1834.07 933.28,-1834.07 933.28,-1798.07 1125.28,-1798.07 1125.28,-1834.07"/>
<polygon fill="none" stroke="white" points="1129.28,-1838.07 929.28,-1838.07 929.28,-1794.07 1129.28,-1794.07 1129.28,-1838.07"/>
<text text-anchor="middle" x="1029.28" y="-1812.27" font-family="monospace" font-size="16.00" fill="white">Hammerspoon/Spoons</text>
</g>
<!-- hotkeys&#45;&gt;g_git@github.com:Hammerspoon/Spoons.git -->
<g id="edge37" class="edge">
<title>hotkeys&#45;&gt;g_git@github.com:Hammerspoon/Spoons.git</title>
<path fill="none" stroke="white" d="M1086.32,-1570.82C1075.99,-1615.22 1049.75,-1728.06 1036.78,-1783.84"/>
<polygon fill="white" stroke="white" points="1033.3,-1783.35 1034.44,-1793.88 1040.11,-1784.93 1033.3,-1783.35"/>
</g>
<!-- g_git@github.com:junosuarez/rcbartender.git -->
<g id="node36" class="node">
<title>g_git@github.com:junosuarez/rcbartender.git</title>
<polygon fill="none" stroke="white" points="823.82,-1608.5 592.82,-1608.5 592.82,-1572.5 823.82,-1572.5 823.82,-1608.5"/>
<polygon fill="none" stroke="white" points="827.82,-1612.5 588.82,-1612.5 588.82,-1568.5 827.82,-1568.5 827.82,-1612.5"/>
<text text-anchor="middle" x="708.32" y="-1586.7" font-family="monospace" font-size="16.00" fill="white">junosuarez/rcbartender</text>
</g>
<!-- bartender&#45;&gt;g_git@github.com:junosuarez/rcbartender.git -->
<g id="edge38" class="edge">
<title>bartender&#45;&gt;g_git@github.com:junosuarez/rcbartender.git</title>
<path fill="none" stroke="white" d="M740.91,-1540.75C737.09,-1546.59 732.74,-1553.22 728.49,-1559.71"/>
<polygon fill="white" stroke="white" points="725.38,-1558.07 722.83,-1568.36 731.23,-1561.91 725.38,-1558.07"/>
</g>
<!-- vscode&#45;&gt;font -->
<g id="edge39" class="edge">
<title>vscode&#45;&gt;font</title>
<path fill="none" stroke="white" d="M762.91,-1065.55C758.06,-1028.83 747.23,-946.78 741.47,-903.18"/>
<polygon fill="white" stroke="white" points="744.93,-902.68 740.15,-893.23 737.99,-903.6 744.93,-902.68"/>
</g>
<!-- git&#45;status&#45;&gt;git -->
<g id="edge40" class="edge">
<title>git&#45;status&#45;&gt;git</title>
<path fill="none" stroke="white" d="M470.01,-397.06C505.76,-424.54 574.61,-477.47 613.02,-506.99"/>
<polygon fill="white" stroke="white" points="611.12,-509.95 621.18,-513.27 615.39,-504.4 611.12,-509.95"/>
</g>
<!-- b_romkatv/gitstatus/gitstatus -->
<g id="node37" class="node">
<title>b_romkatv/gitstatus/gitstatus</title>
<polygon fill="none" stroke="white" points="279.69,-272.62 -0.31,-272.62 -0.31,-236.62 279.69,-236.62 279.69,-272.62"/>
<text text-anchor="middle" x="139.69" y="-250.82" font-family="monospace" font-size="16.00" fill="white">romkatv/gitstatus/gitstatus</text>
</g>
<!-- git&#45;status&#45;&gt;b_romkatv/gitstatus/gitstatus -->
<g id="edge41" class="edge">
<title>git&#45;status&#45;&gt;b_romkatv/gitstatus/gitstatus</title>
<path fill="none" stroke="white" d="M407.49,-363.34C353.01,-341.22 254.69,-301.31 193.54,-276.48"/>
<polygon fill="white" stroke="white" points="194.64,-273.15 184.06,-272.63 192.01,-279.64 194.64,-273.15"/>
</g>
<!-- l1 -->
<g id="node38" class="node">
<title>l1</title>
<polygon fill="none" stroke="white" points="1192.48,-1231.78 1136.48,-1231.78 1136.48,-1195.78 1192.48,-1195.78 1192.48,-1231.78"/>
<text text-anchor="middle" x="1164.48" y="-1209.98" font-family="monospace" font-size="16.00" fill="white">brew</text>
</g>
<!-- l2 -->
<g id="node39" class="node">
<title>l2</title>
<ellipse fill="none" stroke="white" cx="1177.48" cy="-1142.78" rx="53.07" ry="18.27"/>
<text text-anchor="middle" x="1177.48" y="-1138.98" font-family="monospace" font-size="16.00" fill="white">module</text>
</g>
<!-- l3 -->
<g id="node40" class="node">
<title>l3</title>
<polygon fill="none" stroke="white" points="1266.48,-1211.78 1212.48,-1211.78 1212.48,-1175.78 1266.48,-1175.78 1266.48,-1211.78"/>
<polygon fill="none" stroke="white" points="1270.48,-1215.78 1208.48,-1215.78 1208.48,-1171.78 1270.48,-1171.78 1270.48,-1215.78"/>
<text text-anchor="middle" x="1239.48" y="-1189.98" font-family="monospace" font-size="16.00" fill="white">git</text>
</g>
</g>
</svg>
