<?xml version="1.0" encoding="UTF-8" standalone="no"?>
<!DOCTYPE svg PUBLIC "-//W3C//DTD SVG 1.1//EN"
 "http://www.w3.org/Graphics/SVG/1.1/DTD/svg11.dtd">
<!-- Generated by graphviz version 6.0.0 (20220910.1538)
 -->
<!-- Title: A Pages: 1 -->
<svg width="1635pt" height="945pt"
 viewBox="0.00 0.00 1634.56 945.11" xmlns="http://www.w3.org/2000/svg" xmlns:xlink="http://www.w3.org/1999/xlink">
<g id="graph0" class="graph" transform="scale(1 1) rotate(0) translate(4 941.11)">
<title>A</title>
<polygon fill="#222222" stroke="none" points="-4,4 -4,-941.11 1630.56,-941.11 1630.56,4 -4,4"/>
<!-- main_profile -->
<g id="node1" class="node">
<title>main_profile</title>
<ellipse fill="none" stroke="white" cx="864.21" cy="-533.26" rx="94.51" ry="18.27"/>
<text text-anchor="middle" x="864.21" y="-529.46" font-family="monospace" font-size="16.00" fill="white">main_profile</text>
</g>
<!-- font -->
<g id="node2" class="node">
<title>font</title>
<ellipse fill="none" stroke="white" cx="828.27" cy="-669.57" rx="39.7" ry="18.27"/>
<text text-anchor="middle" x="828.27" y="-665.77" font-family="monospace" font-size="16.00" fill="white">font</text>
</g>
<!-- main_profile&#45;&gt;font -->
<g id="edge1" class="edge">
<title>main_profile&#45;&gt;font</title>
<path fill="none" stroke="white" d="M859.36,-551.64C853.31,-574.61 842.88,-614.16 835.79,-641.07"/>
<polygon fill="white" stroke="white" points="832.32,-640.48 833.16,-651.05 839.09,-642.27 832.32,-640.48"/>
</g>
<!-- rc -->
<g id="node3" class="node">
<title>rc</title>
<ellipse fill="none" stroke="white" cx="816.01" cy="-389.76" rx="27" ry="18.27"/>
<text text-anchor="middle" x="816.01" y="-385.96" font-family="monospace" font-size="16.00" fill="white">rc</text>
</g>
<!-- main_profile&#45;&gt;rc -->
<g id="edge2" class="edge">
<title>main_profile&#45;&gt;rc</title>
<path fill="none" stroke="white" d="M858.01,-514.79C849.72,-490.12 834.96,-446.18 825.33,-417.51"/>
<polygon fill="white" stroke="white" points="828.54,-416.07 822.04,-407.7 821.9,-418.3 828.54,-416.07"/>
</g>
<!-- main_shell -->
<g id="node4" class="node">
<title>main_shell</title>
<ellipse fill="none" stroke="white" cx="578.75" cy="-504.26" rx="80.72" ry="18.27"/>
<text text-anchor="middle" x="578.75" y="-500.46" font-family="monospace" font-size="16.00" fill="white">main_shell</text>
</g>
<!-- main_profile&#45;&gt;main_shell -->
<g id="edge3" class="edge">
<title>main_profile&#45;&gt;main_shell</title>
<path fill="none" stroke="white" d="M780.11,-524.72C743.13,-520.96 699.79,-516.56 662.82,-512.8"/>
<polygon fill="white" stroke="white" points="662.87,-509.29 652.57,-511.76 662.16,-516.25 662.87,-509.29"/>
</g>
<!-- main_desktop -->
<g id="node5" class="node">
<title>main_desktop</title>
<ellipse fill="none" stroke="white" cx="1145.82" cy="-593.54" rx="94.51" ry="18.27"/>
<text text-anchor="middle" x="1145.82" y="-589.74" font-family="monospace" font-size="16.00" fill="white">main_desktop</text>
</g>
<!-- main_profile&#45;&gt;main_desktop -->
<g id="edge4" class="edge">
<title>main_profile&#45;&gt;main_desktop</title>
<path fill="none" stroke="white" d="M928.11,-546.94C970.96,-556.11 1027.51,-568.22 1072.23,-577.79"/>
<polygon fill="white" stroke="white" points="1071.66,-581.25 1082.17,-579.92 1073.12,-574.4 1071.66,-581.25"/>
</g>
<!-- g_git@github.com:junosuarez/font.git -->
<g id="node6" class="node">
<title>g_git@github.com:junosuarez/font.git</title>
<polygon fill="none" stroke="white" points="967.72,-836.14 765.72,-836.14 765.72,-800.14 967.72,-800.14 967.72,-836.14"/>
<polygon fill="none" stroke="white" points="971.72,-840.14 761.72,-840.14 761.72,-796.14 971.72,-796.14 971.72,-840.14"/>
<text text-anchor="middle" x="866.72" y="-814.34" font-family="monospace" font-size="16.00" fill="white">git:junosuarez/font</text>
</g>
<!-- font&#45;&gt;g_git@github.com:junosuarez/font.git -->
<g id="edge5" class="edge">
<title>font&#45;&gt;g_git@github.com:junosuarez/font.git</title>
<path fill="none" stroke="white" d="M833.06,-688.09C839.4,-712.58 850.68,-756.14 858.42,-786.04"/>
<polygon fill="white" stroke="white" points="855.1,-787.19 860.99,-796 861.88,-785.44 855.1,-787.19"/>
</g>
<!-- git -->
<g id="node7" class="node">
<title>git</title>
<ellipse fill="none" stroke="white" cx="684.43" cy="-319.78" rx="32.55" ry="18.27"/>
<text text-anchor="middle" x="684.43" y="-315.98" font-family="monospace" font-size="16.00" fill="white">git</text>
</g>
<!-- rc&#45;&gt;git -->
<g id="edge6" class="edge">
<title>rc&#45;&gt;git</title>
<path fill="none" stroke="white" d="M794.58,-378.36C773.66,-367.23 741.53,-350.15 717.37,-337.29"/>
<polygon fill="white" stroke="white" points="719.01,-334.2 708.53,-332.59 715.72,-340.38 719.01,-334.2"/>
</g>
<!-- main_shell&#45;&gt;git -->
<g id="edge7" class="edge">
<title>main_shell&#45;&gt;git</title>
<path fill="none" stroke="white" d="M589.27,-485.89C608.04,-453.13 647.37,-384.47 669.13,-346.48"/>
<polygon fill="white" stroke="white" points="672.33,-347.94 674.26,-337.52 666.26,-344.46 672.33,-347.94"/>
</g>
<!-- kitty -->
<g id="node8" class="node">
<title>kitty</title>
<ellipse fill="none" stroke="white" cx="655.23" cy="-682.22" rx="45.92" ry="18.27"/>
<text text-anchor="middle" x="655.23" y="-678.42" font-family="monospace" font-size="16.00" fill="white">kitty</text>
</g>
<!-- main_shell&#45;&gt;kitty -->
<g id="edge8" class="edge">
<title>main_shell&#45;&gt;kitty</title>
<path fill="none" stroke="white" d="M586.65,-522.63C600.08,-553.89 627.45,-617.57 643.25,-654.34"/>
<polygon fill="white" stroke="white" points="640.21,-656.14 647.38,-663.95 646.64,-653.38 640.21,-656.14"/>
</g>
<!-- prompt -->
<g id="node9" class="node">
<title>prompt</title>
<ellipse fill="none" stroke="white" cx="496.91" cy="-281.36" rx="53.07" ry="18.27"/>
<text text-anchor="middle" x="496.91" y="-277.56" font-family="monospace" font-size="16.00" fill="white">prompt</text>
</g>
<!-- main_shell&#45;&gt;prompt -->
<g id="edge9" class="edge">
<title>main_shell&#45;&gt;prompt</title>
<path fill="none" stroke="white" d="M571.92,-485.64C557.53,-446.45 524.06,-355.29 507.12,-309.16"/>
<polygon fill="white" stroke="white" points="510.41,-307.95 503.67,-299.77 503.83,-310.36 510.41,-307.95"/>
</g>
<!-- vim -->
<g id="node10" class="node">
<title>vim</title>
<ellipse fill="none" stroke="white" cx="711.38" cy="-570.76" rx="32.55" ry="18.27"/>
<text text-anchor="middle" x="711.38" y="-566.96" font-family="monospace" font-size="16.00" fill="white">vim</text>
</g>
<!-- main_shell&#45;&gt;vim -->
<g id="edge10" class="edge">
<title>main_shell&#45;&gt;vim</title>
<path fill="none" stroke="white" d="M612.22,-521.04C632.23,-531.07 657.57,-543.78 677.63,-553.84"/>
<polygon fill="white" stroke="white" points="676.21,-557.04 686.72,-558.4 679.34,-550.79 676.21,-557.04"/>
</g>
<!-- utils -->
<g id="node11" class="node">
<title>utils</title>
<ellipse fill="none" stroke="white" cx="258.99" cy="-635.48" rx="45.92" ry="18.27"/>
<text text-anchor="middle" x="258.99" y="-631.68" font-family="monospace" font-size="16.00" fill="white">utils</text>
</g>
<!-- main_shell&#45;&gt;utils -->
<g id="edge11" class="edge">
<title>main_shell&#45;&gt;utils</title>
<path fill="none" stroke="white" d="M539.54,-520.35C478.91,-545.23 362.93,-592.82 300.78,-618.33"/>
<polygon fill="white" stroke="white" points="299.2,-615.19 291.28,-622.23 301.86,-621.67 299.2,-615.19"/>
</g>
<!-- window_mgr -->
<g id="node12" class="node">
<title>window_mgr</title>
<ellipse fill="none" stroke="white" cx="1312.29" cy="-679.75" rx="80.72" ry="18.27"/>
<text text-anchor="middle" x="1312.29" y="-675.95" font-family="monospace" font-size="16.00" fill="white">window_mgr</text>
</g>
<!-- main_desktop&#45;&gt;window_mgr -->
<g id="edge12" class="edge">
<title>main_desktop&#45;&gt;window_mgr</title>
<path fill="none" stroke="white" d="M1179.1,-610.78C1205.36,-624.38 1242.14,-643.42 1270.4,-658.06"/>
<polygon fill="white" stroke="white" points="1269.14,-661.35 1279.63,-662.84 1272.36,-655.13 1269.14,-661.35"/>
</g>
<!-- hotkeys -->
<g id="node13" class="node">
<title>hotkeys</title>
<ellipse fill="none" stroke="white" cx="1364.44" cy="-478.95" rx="60.21" ry="18.27"/>
<text text-anchor="middle" x="1364.44" y="-475.15" font-family="monospace" font-size="16.00" fill="white">hotkeys</text>
</g>
<!-- main_desktop&#45;&gt;hotkeys -->
<g id="edge13" class="edge">
<title>main_desktop&#45;&gt;hotkeys</title>
<path fill="none" stroke="white" d="M1179.02,-576.14C1218.22,-555.59 1283.35,-521.45 1325.06,-499.59"/>
<polygon fill="white" stroke="white" points="1326.87,-502.59 1334.1,-494.85 1323.62,-496.39 1326.87,-502.59"/>
</g>
<!-- bartender -->
<g id="node14" class="node">
<title>bartender</title>
<ellipse fill="none" stroke="white" cx="1195.64" cy="-774.18" rx="73.58" ry="18.27"/>
<text text-anchor="middle" x="1195.64" y="-770.38" font-family="monospace" font-size="16.00" fill="white">bartender</text>
</g>
<!-- main_desktop&#45;&gt;bartender -->
<g id="edge14" class="edge">
<title>main_desktop&#45;&gt;bartender</title>
<path fill="none" stroke="white" d="M1150.96,-612.19C1159.71,-643.92 1177.54,-708.56 1187.83,-745.88"/>
<polygon fill="white" stroke="white" points="1184.49,-746.92 1190.52,-755.63 1191.24,-745.06 1184.49,-746.92"/>
</g>
<!-- vscode -->
<g id="node15" class="node">
<title>vscode</title>
<ellipse fill="none" stroke="white" cx="1000.82" cy="-654.26" rx="53.07" ry="18.27"/>
<text text-anchor="middle" x="1000.82" y="-650.46" font-family="monospace" font-size="16.00" fill="white">vscode</text>
</g>
<!-- main_desktop&#45;&gt;vscode -->
<g id="edge15" class="edge">
<title>main_desktop&#45;&gt;vscode</title>
<path fill="none" stroke="white" d="M1105.81,-610.29C1086.65,-618.32 1063.67,-627.94 1044.1,-636.14"/>
<polygon fill="white" stroke="white" points="1042.67,-632.94 1034.8,-640.03 1045.38,-639.4 1042.67,-632.94"/>
</g>
<!-- c_keycastr -->
<g id="node16" class="node">
<title>c_keycastr</title>
<polygon fill="#ffffff" fill-opacity="0.133333" stroke="white" points="1250.89,-487.02 1107.89,-487.02 1107.89,-451.02 1250.89,-451.02 1250.89,-487.02"/>
<text text-anchor="middle" x="1179.39" y="-465.22" font-family="monospace" font-size="16.00" fill="white">cask:keycastr</text>
</g>
<!-- main_desktop&#45;&gt;c_keycastr -->
<g id="edge16" class="edge">
<title>main_desktop&#45;&gt;c_keycastr</title>
<path fill="none" stroke="white" d="M1150.77,-575.17C1156.33,-554.54 1165.42,-520.84 1171.86,-496.95"/>
<polygon fill="white" stroke="white" points="1175.3,-497.63 1174.52,-487.06 1168.54,-495.81 1175.3,-497.63"/>
</g>
<!-- b_cloc -->
<g id="node17" class="node">
<title>b_cloc</title>
<polygon fill="none" stroke="white" points="833.2,-216.73 729.2,-216.73 729.2,-180.73 833.2,-180.73 833.2,-216.73"/>
<text text-anchor="middle" x="781.2" y="-194.93" font-family="monospace" font-size="16.00" fill="white">brew:cloc</text>
</g>
<!-- git&#45;&gt;b_cloc -->
<g id="edge17" class="edge">
<title>git&#45;&gt;b_cloc</title>
<path fill="none" stroke="white" d="M697.89,-302.94C714.05,-282.72 741.36,-248.57 760.28,-224.9"/>
<polygon fill="white" stroke="white" points="763.09,-227 766.6,-217 757.62,-222.63 763.09,-227"/>
</g>
<!-- kitty&#45;&gt;font -->
<g id="edge18" class="edge">
<title>kitty&#45;&gt;font</title>
<path fill="none" stroke="white" d="M700.69,-678.9C724.7,-677.14 754.2,-674.99 778.78,-673.19"/>
<polygon fill="white" stroke="white" points="779.27,-676.66 788.99,-672.45 778.76,-669.68 779.27,-676.66"/>
</g>
<!-- b_imagemagick -->
<g id="node18" class="node">
<title>b_imagemagick</title>
<polygon fill="none" stroke="white" points="702.61,-846.61 529.61,-846.61 529.61,-810.61 702.61,-810.61 702.61,-846.61"/>
<text text-anchor="middle" x="616.11" y="-824.81" font-family="monospace" font-size="16.00" fill="white">brew:imagemagick</text>
</g>
<!-- kitty&#45;&gt;b_imagemagick -->
<g id="edge19" class="edge">
<title>kitty&#45;&gt;b_imagemagick</title>
<path fill="none" stroke="white" d="M650.27,-700.76C643.54,-725.95 631.45,-771.2 623.6,-800.55"/>
<polygon fill="white" stroke="white" points="620.22,-799.65 621.02,-810.22 626.98,-801.46 620.22,-799.65"/>
</g>
<!-- c_kitty -->
<g id="node19" class="node">
<title>c_kitty</title>
<polygon fill="#ffffff" fill-opacity="0.133333" stroke="white" points="605.07,-740.67 491.07,-740.67 491.07,-704.67 605.07,-704.67 605.07,-740.67"/>
<text text-anchor="middle" x="548.07" y="-718.87" font-family="monospace" font-size="16.00" fill="white">cask:kitty</text>
</g>
<!-- kitty&#45;&gt;c_kitty -->
<g id="edge20" class="edge">
<title>kitty&#45;&gt;c_kitty</title>
<path fill="none" stroke="white" d="M621.62,-694.91C616.55,-696.82 611.21,-698.83 605.81,-700.87"/>
<polygon fill="white" stroke="white" points="604.2,-697.74 596.08,-704.54 606.67,-704.29 604.2,-697.74"/>
</g>
<!-- git&#45;status -->
<g id="node20" class="node">
<title>git&#45;status</title>
<ellipse fill="none" stroke="white" cx="608.21" cy="-173.38" rx="80.72" ry="18.27"/>
<text text-anchor="middle" x="608.21" y="-169.58" font-family="monospace" font-size="16.00" fill="white">git&#45;status</text>
</g>
<!-- prompt&#45;&gt;git&#45;status -->
<g id="edge21" class="edge">
<title>prompt&#45;&gt;git&#45;status</title>
<path fill="none" stroke="white" d="M514.8,-264.01C533.07,-246.28 561.65,-218.56 582.38,-198.44"/>
<polygon fill="white" stroke="white" points="584.89,-200.88 589.63,-191.4 580.02,-195.86 584.89,-200.88"/>
</g>
<!-- aqi -->
<g id="node21" class="node">
<title>aqi</title>
<ellipse fill="none" stroke="white" cx="356.84" cy="-222.52" rx="32.55" ry="18.27"/>
<text text-anchor="middle" x="356.84" y="-218.72" font-family="monospace" font-size="16.00" fill="white">aqi</text>
</g>
<!-- prompt&#45;&gt;aqi -->
<g id="edge22" class="edge">
<title>prompt&#45;&gt;aqi</title>
<path fill="none" stroke="white" d="M463.01,-267.12C441.66,-258.15 414.15,-246.59 392.48,-237.49"/>
<polygon fill="white" stroke="white" points="393.56,-234.15 382.98,-233.5 390.85,-240.6 393.56,-234.15"/>
</g>
<!-- b_starship -->
<g id="node22" class="node">
<title>b_starship</title>
<polygon fill="none" stroke="white" points="512.47,-146.71 369.47,-146.71 369.47,-110.71 512.47,-110.71 512.47,-146.71"/>
<text text-anchor="middle" x="440.97" y="-124.91" font-family="monospace" font-size="16.00" fill="white">brew:starship</text>
</g>
<!-- prompt&#45;&gt;b_starship -->
<g id="edge23" class="edge">
<title>prompt&#45;&gt;b_starship</title>
<path fill="none" stroke="white" d="M490.17,-262.95C480.45,-236.44 462.46,-187.34 451.13,-156.44"/>
<polygon fill="white" stroke="white" points="454.29,-154.9 447.57,-146.72 447.72,-157.31 454.29,-154.9"/>
</g>
<!-- vim&#45;&gt;font -->
<g id="edge24" class="edge">
<title>vim&#45;&gt;font</title>
<path fill="none" stroke="white" d="M729.64,-586.2C748.86,-602.45 779.31,-628.18 801.29,-646.77"/>
<polygon fill="white" stroke="white" points="799.07,-649.48 808.97,-653.26 803.59,-644.13 799.07,-649.48"/>
</g>
<!-- b_coreutils -->
<g id="node23" class="node">
<title>b_coreutils</title>
<polygon fill="none" stroke="white" points="218.71,-644.82 65.71,-644.82 65.71,-608.82 218.71,-608.82 218.71,-644.82"/>
<text text-anchor="middle" x="142.21" y="-623.02" font-family="monospace" font-size="16.00" fill="white">brew:coreutils</text>
</g>
<!-- utils&#45;&gt;b_coreutils -->
<g id="edge25" class="edge">
<title>utils&#45;&gt;b_coreutils</title>
<path fill="none" stroke="white" d="M213.51,-632.1C213.44,-632.1 213.38,-632.09 213.31,-632.09"/>
<polygon fill="white" stroke="white" points="223.35,-629.33 213.12,-632.08 222.83,-636.31 223.35,-629.33"/>
</g>
<!-- b_inetutils -->
<g id="node24" class="node">
<title>b_inetutils</title>
<polygon fill="none" stroke="white" points="153,-569.67 0,-569.67 0,-533.67 153,-533.67 153,-569.67"/>
<text text-anchor="middle" x="76.5" y="-547.87" font-family="monospace" font-size="16.00" fill="white">brew:inetutils</text>
</g>
<!-- utils&#45;&gt;b_inetutils -->
<g id="edge26" class="edge">
<title>utils&#45;&gt;b_inetutils</title>
<path fill="none" stroke="white" d="M228.44,-621.45C200.28,-608.51 157.99,-589.09 125.17,-574.02"/>
<polygon fill="white" stroke="white" points="126.3,-570.69 115.75,-569.69 123.38,-577.05 126.3,-570.69"/>
</g>
<!-- b_jid -->
<g id="node25" class="node">
<title>b_jid</title>
<polygon fill="none" stroke="white" points="348.83,-531.31 253.83,-531.31 253.83,-495.31 348.83,-495.31 348.83,-531.31"/>
<text text-anchor="middle" x="301.33" y="-509.51" font-family="monospace" font-size="16.00" fill="white">brew:jid</text>
</g>
<!-- utils&#45;&gt;b_jid -->
<g id="edge27" class="edge">
<title>utils&#45;&gt;b_jid</title>
<path fill="none" stroke="white" d="M265.33,-617.19C272.32,-597.01 283.65,-564.31 291.74,-540.99"/>
<polygon fill="white" stroke="white" points="295.12,-541.92 295.09,-531.33 288.5,-539.63 295.12,-541.92"/>
</g>
<!-- b_jq -->
<g id="node26" class="node">
<title>b_jq</title>
<polygon fill="none" stroke="white" points="220.63,-501.37 135.63,-501.37 135.63,-465.37 220.63,-465.37 220.63,-501.37"/>
<text text-anchor="middle" x="178.13" y="-479.57" font-family="monospace" font-size="16.00" fill="white">brew:jq</text>
</g>
<!-- utils&#45;&gt;b_jq -->
<g id="edge28" class="edge">
<title>utils&#45;&gt;b_jq</title>
<path fill="none" stroke="white" d="M249.4,-617.43C235.29,-590.9 208.87,-541.19 192.46,-510.32"/>
<polygon fill="white" stroke="white" points="195.5,-508.58 187.71,-501.4 189.32,-511.87 195.5,-508.58"/>
</g>
<!-- b_lsd -->
<g id="node27" class="node">
<title>b_lsd</title>
<polygon fill="none" stroke="white" points="325.19,-845.27 230.19,-845.27 230.19,-809.27 325.19,-809.27 325.19,-845.27"/>
<text text-anchor="middle" x="277.69" y="-823.47" font-family="monospace" font-size="16.00" fill="white">brew:lsd</text>
</g>
<!-- utils&#45;&gt;b_lsd -->
<g id="edge29" class="edge">
<title>utils&#45;&gt;b_lsd</title>
<path fill="none" stroke="white" d="M260.78,-653.87C264.06,-687.53 271.06,-759.27 274.94,-799.11"/>
<polygon fill="white" stroke="white" points="271.47,-799.6 275.93,-809.22 278.44,-798.92 271.47,-799.6"/>
</g>
<!-- b_p7zip -->
<g id="node28" class="node">
<title>b_p7zip</title>
<polygon fill="none" stroke="white" points="123.3,-716.86 9.3,-716.86 9.3,-680.86 123.3,-680.86 123.3,-716.86"/>
<text text-anchor="middle" x="66.3" y="-695.06" font-family="monospace" font-size="16.00" fill="white">brew:p7zip</text>
</g>
<!-- utils&#45;&gt;b_p7zip -->
<g id="edge30" class="edge">
<title>utils&#45;&gt;b_p7zip</title>
<path fill="none" stroke="white" d="M223.2,-647.25C197.37,-655.75 161.78,-667.46 131.02,-677.57"/>
<polygon fill="white" stroke="white" points="129.63,-674.35 121.22,-680.8 131.81,-681 129.63,-674.35"/>
</g>
<!-- b_graphviz -->
<g id="node29" class="node">
<title>b_graphviz</title>
<polygon fill="none" stroke="white" points="199.34,-815.43 56.34,-815.43 56.34,-779.43 199.34,-779.43 199.34,-815.43"/>
<text text-anchor="middle" x="127.84" y="-793.63" font-family="monospace" font-size="16.00" fill="white">brew:graphviz</text>
</g>
<!-- utils&#45;&gt;b_graphviz -->
<g id="edge31" class="edge">
<title>utils&#45;&gt;b_graphviz</title>
<path fill="none" stroke="white" d="M244.7,-653.12C221.57,-681.69 175.79,-738.22 148.91,-771.42"/>
<polygon fill="white" stroke="white" points="146.08,-769.35 142.51,-779.32 151.52,-773.75 146.08,-769.35"/>
</g>
<!-- b_bat -->
<g id="node30" class="node">
<title>b_bat</title>
<polygon fill="none" stroke="white" points="259.1,-764.69 164.1,-764.69 164.1,-728.69 259.1,-728.69 259.1,-764.69"/>
<text text-anchor="middle" x="211.6" y="-742.89" font-family="monospace" font-size="16.00" fill="white">brew:bat</text>
</g>
<!-- utils&#45;&gt;b_bat -->
<g id="edge32" class="edge">
<title>utils&#45;&gt;b_bat</title>
<path fill="none" stroke="white" d="M251.16,-653.84C243.57,-671.65 231.96,-698.91 223.27,-719.29"/>
<polygon fill="white" stroke="white" points="219.98,-718.09 219.28,-728.67 226.42,-720.84 219.98,-718.09"/>
</g>
<!-- b_fzf -->
<g id="node31" class="node">
<title>b_fzf</title>
<polygon fill="none" stroke="white" points="403.44,-743.78 308.44,-743.78 308.44,-707.78 403.44,-707.78 403.44,-743.78"/>
<text text-anchor="middle" x="355.94" y="-721.98" font-family="monospace" font-size="16.00" fill="white">brew:fzf</text>
</g>
<!-- utils&#45;&gt;b_fzf -->
<g id="edge33" class="edge">
<title>utils&#45;&gt;b_fzf</title>
<path fill="none" stroke="white" d="M277.22,-652.46C291.74,-665.99 312.29,-685.12 328.74,-700.45"/>
<polygon fill="white" stroke="white" points="326.75,-703.38 336.45,-707.63 331.52,-698.26 326.75,-703.38"/>
</g>
<!-- c_itsycal -->
<g id="node32" class="node">
<title>c_itsycal</title>
<polygon fill="#ffffff" fill-opacity="0.133333" stroke="white" points="1506.82,-779.34 1372.82,-779.34 1372.82,-743.34 1506.82,-743.34 1506.82,-779.34"/>
<text text-anchor="middle" x="1439.82" y="-757.54" font-family="monospace" font-size="16.00" fill="white">cask:itsycal</text>
</g>
<!-- window_mgr&#45;&gt;c_itsycal -->
<g id="edge34" class="edge">
<title>window_mgr&#45;&gt;c_itsycal</title>
<path fill="none" stroke="white" d="M1339.65,-697.26C1358.14,-709.08 1382.77,-724.84 1402.98,-737.77"/>
<polygon fill="white" stroke="white" points="1401.31,-740.86 1411.62,-743.3 1405.09,-734.97 1401.31,-740.86"/>
</g>
<!-- c_karabiner&#45;elements -->
<g id="node33" class="node">
<title>c_karabiner&#45;elements</title>
<polygon fill="#ffffff" fill-opacity="0.133333" stroke="white" points="1513.25,-351.45 1272.25,-351.45 1272.25,-315.45 1513.25,-315.45 1513.25,-351.45"/>
<text text-anchor="middle" x="1392.75" y="-329.65" font-family="monospace" font-size="16.00" fill="white">cask:karabiner&#45;elements</text>
</g>
<!-- hotkeys&#45;&gt;c_karabiner&#45;elements -->
<g id="edge35" class="edge">
<title>hotkeys&#45;&gt;c_karabiner&#45;elements</title>
<path fill="none" stroke="white" d="M1368.03,-460.52C1372.88,-435.59 1381.57,-390.9 1387.25,-361.71"/>
<polygon fill="white" stroke="white" points="1390.72,-362.21 1389.19,-351.73 1383.85,-360.87 1390.72,-362.21"/>
</g>
<!-- c_hammerspoon -->
<g id="node34" class="node">
<title>c_hammerspoon</title>
<polygon fill="#ffffff" fill-opacity="0.133333" stroke="white" points="1594.01,-420.11 1421.01,-420.11 1421.01,-384.11 1594.01,-384.11 1594.01,-420.11"/>
<text text-anchor="middle" x="1507.51" y="-398.31" font-family="monospace" font-size="16.00" fill="white">cask:hammerspoon</text>
</g>
<!-- hotkeys&#45;&gt;c_hammerspoon -->
<g id="edge36" class="edge">
<title>hotkeys&#45;&gt;c_hammerspoon</title>
<path fill="none" stroke="white" d="M1394.43,-462.84C1414.81,-451.89 1442.08,-437.25 1464.73,-425.08"/>
<polygon fill="white" stroke="white" points="1466.65,-428.03 1473.8,-420.21 1463.33,-421.86 1466.65,-428.03"/>
</g>
<!-- g_git@github.com:Hammerspoon/Spoons.git -->
<g id="node35" class="node">
<title>g_git@github.com:Hammerspoon/Spoons.git</title>
<polygon fill="none" stroke="white" points="1622.56,-549.03 1391.56,-549.03 1391.56,-513.03 1622.56,-513.03 1622.56,-549.03"/>
<polygon fill="none" stroke="white" points="1626.56,-553.03 1387.56,-553.03 1387.56,-509.03 1626.56,-509.03 1626.56,-553.03"/>
<text text-anchor="middle" x="1507.06" y="-527.23" font-family="monospace" font-size="16.00" fill="white">git:Hammerspoon/Spoons</text>
</g>
<!-- hotkeys&#45;&gt;g_git@github.com:Hammerspoon/Spoons.git -->
<g id="edge37" class="edge">
<title>hotkeys&#45;&gt;g_git@github.com:Hammerspoon/Spoons.git</title>
<path fill="none" stroke="white" d="M1403.04,-493.04C1413.65,-496.92 1425.49,-501.24 1437.28,-505.55"/>
<polygon fill="white" stroke="white" points="1436.1,-508.85 1446.7,-508.99 1438.51,-502.27 1436.1,-508.85"/>
</g>
<!-- g_git@github.com:junosuarez/rcbartender.git -->
<g id="node36" class="node">
<title>g_git@github.com:junosuarez/rcbartender.git</title>
<polygon fill="none" stroke="white" points="1381.14,-933.11 1111.14,-933.11 1111.14,-897.11 1381.14,-897.11 1381.14,-933.11"/>
<polygon fill="none" stroke="white" points="1385.14,-937.11 1107.14,-937.11 1107.14,-893.11 1385.14,-893.11 1385.14,-937.11"/>
<text text-anchor="middle" x="1246.14" y="-911.31" font-family="monospace" font-size="16.00" fill="white">git:junosuarez/rcbartender</text>
</g>
<!-- bartender&#45;&gt;g_git@github.com:junosuarez/rcbartender.git -->
<g id="edge38" class="edge">
<title>bartender&#45;&gt;g_git@github.com:junosuarez/rcbartender.git</title>
<path fill="none" stroke="white" d="M1202.24,-792.61C1210.48,-815.6 1224.7,-855.29 1234.72,-883.25"/>
<polygon fill="white" stroke="white" points="1231.54,-884.74 1238.2,-892.97 1238.13,-882.38 1231.54,-884.74"/>
</g>
<!-- vscode&#45;&gt;font -->
<g id="edge39" class="edge">
<title>vscode&#45;&gt;font</title>
<path fill="none" stroke="white" d="M949.05,-658.86C926.32,-660.87 899.77,-663.23 877.36,-665.22"/>
<polygon fill="white" stroke="white" points="877.04,-661.73 867.39,-666.1 877.66,-668.71 877.04,-661.73"/>
</g>
<!-- git&#45;status&#45;&gt;git -->
<g id="edge40" class="edge">
<title>git&#45;status&#45;&gt;git</title>
<path fill="none" stroke="white" d="M617.86,-191.92C631.17,-217.47 655.21,-263.66 670.47,-292.97"/>
<polygon fill="white" stroke="white" points="667.37,-294.59 675.09,-301.84 673.58,-291.36 667.37,-294.59"/>
</g>
<!-- b_romkatv/gitstatus/gitstatus -->
<g id="node37" class="node">
<title>b_romkatv/gitstatus/gitstatus</title>
<polygon fill="none" stroke="white" points="791.79,-36 462.79,-36 462.79,0 791.79,0 791.79,-36"/>
<text text-anchor="middle" x="627.29" y="-14.2" font-family="monospace" font-size="16.00" fill="white">brew:romkatv/gitstatus/gitstatus</text>
</g>
<!-- git&#45;status&#45;&gt;b_romkatv/gitstatus/gitstatus -->
<g id="edge41" class="edge">
<title>git&#45;status&#45;&gt;b_romkatv/gitstatus/gitstatus</title>
<path fill="none" stroke="white" d="M610.47,-154.94C613.77,-128.08 619.93,-77.93 623.81,-46.35"/>
<polygon fill="white" stroke="white" points="627.28,-46.76 625.03,-36.41 620.33,-45.91 627.28,-46.76"/>
</g>
</g>
</svg>
