<?xml version="1.0" encoding="UTF-8" standalone="no"?>
<!DOCTYPE svg PUBLIC "-//W3C//DTD SVG 1.1//EN"
 "http://www.w3.org/Graphics/SVG/1.1/DTD/svg11.dtd">
<!-- Generated by graphviz version 6.0.0 (20220910.1538)
 -->
<!-- Title: A Pages: 1 -->
<svg width="2988pt" height="469pt"
 viewBox="0.00 0.00 2988.00 468.54" xmlns="http://www.w3.org/2000/svg" xmlns:xlink="http://www.w3.org/1999/xlink">
<g id="graph0" class="graph" transform="scale(1 1) rotate(0) translate(4 464.54)">
<title>A</title>
<polygon fill="#222222" stroke="none" points="-4,4 -4,-464.54 2984,-464.54 2984,4 -4,4"/>
<g id="clust23" class="cluster">
<title>cluster_legend</title>
<polygon fill="#ffffff" fill-opacity="0.266667" stroke="#ffffff" stroke-opacity="0.266667" points="1816,-369.54 1816,-452.54 2092,-452.54 2092,-369.54 1816,-369.54"/>
<text text-anchor="middle" x="1954" y="-437.34" font-family="Courier,monospace" font-size="14.00" fill="white">key</text>
</g>
<!-- main_profile -->
<g id="node1" class="node">
<title>main_profile</title>
<ellipse fill="none" stroke="white" cx="1711" cy="-399.54" rx="94.51" ry="18.27"/>
<text text-anchor="middle" x="1711" y="-395.74" font-family="monospace" font-size="16.00" fill="white">main_profile</text>
</g>
<!-- font -->
<g id="node2" class="node">
<title>font</title>
<ellipse fill="none" stroke="white" cx="1731" cy="-174" rx="39.7" ry="18.27"/>
<text text-anchor="middle" x="1731" y="-170.2" font-family="monospace" font-size="16.00" fill="white">font</text>
</g>
<!-- main_profile&#45;&gt;font -->
<g id="edge1" class="edge">
<title>main_profile&#45;&gt;font</title>
<path fill="none" stroke="white" d="M1712.57,-381C1716.04,-342.23 1724.38,-249.02 1728.54,-202.45"/>
<polygon fill="white" stroke="white" points="1732.03,-202.73 1729.44,-192.46 1725.06,-202.11 1732.03,-202.73"/>
</g>
<!-- rc -->
<g id="node3" class="node">
<title>rc</title>
<ellipse fill="none" stroke="white" cx="1793" cy="-323.15" rx="27" ry="18.27"/>
<text text-anchor="middle" x="1793" y="-319.35" font-family="monospace" font-size="16.00" fill="white">rc</text>
</g>
<!-- main_profile&#45;&gt;rc -->
<g id="edge2" class="edge">
<title>main_profile&#45;&gt;rc</title>
<path fill="none" stroke="white" d="M1730.02,-381.29C1741.93,-370.48 1757.35,-356.49 1769.96,-345.06"/>
<polygon fill="white" stroke="white" points="1772.33,-347.63 1777.38,-338.32 1767.63,-342.45 1772.33,-347.63"/>
</g>
<!-- tools -->
<g id="node4" class="node">
<title>tools</title>
<ellipse fill="none" stroke="white" cx="476" cy="-250.38" rx="45.92" ry="18.27"/>
<text text-anchor="middle" x="476" y="-246.58" font-family="monospace" font-size="16.00" fill="white">tools</text>
</g>
<!-- main_profile&#45;&gt;tools -->
<g id="edge3" class="edge">
<title>main_profile&#45;&gt;tools</title>
<path fill="none" stroke="white" d="M1632.34,-389.17C1400.72,-361.57 725.19,-281.08 529.63,-257.77"/>
<polygon fill="white" stroke="white" points="529.94,-254.29 519.6,-256.58 529.11,-261.24 529.94,-254.29"/>
</g>
<!-- vim -->
<g id="node5" class="node">
<title>vim</title>
<ellipse fill="none" stroke="white" cx="1670" cy="-250.38" rx="32.55" ry="18.27"/>
<text text-anchor="middle" x="1670" y="-246.58" font-family="monospace" font-size="16.00" fill="white">vim</text>
</g>
<!-- main_profile&#45;&gt;vim -->
<g id="edge4" class="edge">
<title>main_profile&#45;&gt;vim</title>
<path fill="none" stroke="white" d="M1706.14,-381.08C1699.08,-355.75 1685.93,-308.56 1677.59,-278.62"/>
<polygon fill="white" stroke="white" points="1680.91,-277.51 1674.86,-268.82 1674.17,-279.39 1680.91,-277.51"/>
</g>
<!-- main_shell -->
<g id="node6" class="node">
<title>main_shell</title>
<ellipse fill="none" stroke="white" cx="1521" cy="-323.15" rx="80.72" ry="18.27"/>
<text text-anchor="middle" x="1521" y="-319.35" font-family="monospace" font-size="16.00" fill="white">main_shell</text>
</g>
<!-- main_profile&#45;&gt;main_shell -->
<g id="edge5" class="edge">
<title>main_profile&#45;&gt;main_shell</title>
<path fill="none" stroke="white" d="M1670.71,-382.76C1641.09,-371.17 1600.71,-355.36 1569.36,-343.09"/>
<polygon fill="white" stroke="white" points="1570.52,-339.78 1559.94,-339.4 1567.97,-346.3 1570.52,-339.78"/>
</g>
<!-- main_desktop -->
<g id="node7" class="node">
<title>main_desktop</title>
<ellipse fill="none" stroke="white" cx="2025" cy="-323.15" rx="94.51" ry="18.27"/>
<text text-anchor="middle" x="2025" y="-319.35" font-family="monospace" font-size="16.00" fill="white">main_desktop</text>
</g>
<!-- main_profile&#45;&gt;main_desktop -->
<g id="edge6" class="edge">
<title>main_profile&#45;&gt;main_desktop</title>
<path fill="none" stroke="white" d="M1759.87,-383.76C1776.37,-378.98 1794.92,-373.81 1812,-369.54 1857.75,-358.11 1909.48,-347.05 1950.5,-338.7"/>
<polygon fill="white" stroke="white" points="1951.31,-342.11 1960.42,-336.7 1949.92,-335.25 1951.31,-342.11"/>
</g>
<!-- b_git@github.com:junosuarez/font.git -->
<g id="node8" class="node">
<title>b_git@github.com:junosuarez/font.git</title>
<polygon fill="none" stroke="white" points="1812.5,-112 1649.5,-112 1649.5,-76 1812.5,-76 1812.5,-112"/>
<polygon fill="none" stroke="white" points="1816.5,-116 1645.5,-116 1645.5,-72 1816.5,-72 1816.5,-116"/>
<text text-anchor="middle" x="1731" y="-90.2" font-family="monospace" font-size="16.00" fill="white">junosuarez/font</text>
</g>
<!-- font&#45;&gt;b_git@github.com:junosuarez/font.git -->
<g id="edge7" class="edge">
<title>font&#45;&gt;b_git@github.com:junosuarez/font.git</title>
<path fill="none" stroke="white" d="M1731,-155.3C1731,-146.78 1731,-136.31 1731,-126.5"/>
<polygon fill="white" stroke="white" points="1734.5,-126.23 1731,-116.23 1727.5,-126.23 1734.5,-126.23"/>
</g>
<!-- git -->
<g id="node9" class="node">
<title>git</title>
<ellipse fill="none" stroke="white" cx="1369" cy="-94" rx="32.55" ry="18.27"/>
<text text-anchor="middle" x="1369" y="-90.2" font-family="monospace" font-size="16.00" fill="white">git</text>
</g>
<!-- rc&#45;&gt;git -->
<g id="edge8" class="edge">
<title>rc&#45;&gt;git</title>
<path fill="none" stroke="white" d="M1797.88,-304.94C1806.4,-270.78 1819.57,-194.09 1780,-152 1754.95,-125.36 1511.04,-105.12 1411.24,-97.89"/>
<polygon fill="white" stroke="white" points="1411.43,-94.39 1401.2,-97.17 1410.93,-101.37 1411.43,-94.39"/>
</g>
<!-- b_coreutils -->
<g id="node10" class="node">
<title>b_coreutils</title>
<polygon fill="none" stroke="white" points="843,-192 739,-192 739,-156 843,-156 843,-192"/>
<text text-anchor="middle" x="791" y="-170.2" font-family="monospace" font-size="16.00" fill="white">coreutils</text>
</g>
<!-- tools&#45;&gt;b_coreutils -->
<g id="edge9" class="edge">
<title>tools&#45;&gt;b_coreutils</title>
<path fill="none" stroke="white" d="M517.55,-242.18C567.98,-233.08 655.4,-216.15 729,-196 730.23,-195.66 731.48,-195.31 732.73,-194.96"/>
<polygon fill="white" stroke="white" points="733.85,-198.27 742.43,-192.06 731.85,-191.57 733.85,-198.27"/>
</g>
<!-- b_inetutils -->
<g id="node11" class="node">
<title>b_inetutils</title>
<polygon fill="none" stroke="white" points="965,-192 861,-192 861,-156 965,-156 965,-192"/>
<text text-anchor="middle" x="913" y="-170.2" font-family="monospace" font-size="16.00" fill="white">inetutils</text>
</g>
<!-- tools&#45;&gt;b_inetutils -->
<g id="edge10" class="edge">
<title>tools&#45;&gt;b_inetutils</title>
<path fill="none" stroke="white" d="M520.8,-245.81C591.8,-239.51 734.22,-224.36 852,-196 853.46,-195.65 854.94,-195.27 856.43,-194.88"/>
<polygon fill="white" stroke="white" points="857.64,-198.18 866.31,-192.08 855.73,-191.44 857.64,-198.18"/>
</g>
<!-- b_jid -->
<g id="node12" class="node">
<title>b_jid</title>
<polygon fill="none" stroke="white" points="54,-192 0,-192 0,-156 54,-156 54,-192"/>
<text text-anchor="middle" x="27" y="-170.2" font-family="monospace" font-size="16.00" fill="white">jid</text>
</g>
<!-- tools&#45;&gt;b_jid -->
<g id="edge11" class="edge">
<title>tools&#45;&gt;b_jid</title>
<path fill="none" stroke="white" d="M430.06,-249.34C352.36,-247.98 190.98,-239.59 63,-196 62.9,-195.97 62.8,-195.93 62.7,-195.9"/>
<polygon fill="white" stroke="white" points="64.14,-192.71 53.57,-192.04 61.42,-199.16 64.14,-192.71"/>
</g>
<!-- b_jq -->
<g id="node13" class="node">
<title>b_jq</title>
<polygon fill="none" stroke="white" points="126,-192 72,-192 72,-156 126,-156 126,-192"/>
<text text-anchor="middle" x="99" y="-170.2" font-family="monospace" font-size="16.00" fill="white">jq</text>
</g>
<!-- tools&#45;&gt;b_jq -->
<g id="edge12" class="edge">
<title>tools&#45;&gt;b_jq</title>
<path fill="none" stroke="white" d="M430.55,-247.62C365.81,-243.96 243.79,-232.8 135.44,-195.49"/>
<polygon fill="white" stroke="white" points="136.6,-192.18 126,-192.16 134.27,-198.79 136.6,-192.18"/>
</g>
<!-- b_lsd -->
<g id="node14" class="node">
<title>b_lsd</title>
<polygon fill="none" stroke="white" points="198,-192 144,-192 144,-156 198,-156 198,-192"/>
<text text-anchor="middle" x="171" y="-170.2" font-family="monospace" font-size="16.00" fill="white">lsd</text>
</g>
<!-- tools&#45;&gt;b_lsd -->
<g id="edge13" class="edge">
<title>tools&#45;&gt;b_lsd</title>
<path fill="none" stroke="white" d="M431.91,-245.17C379.6,-239.2 290.09,-225.87 207.56,-195.61"/>
<polygon fill="white" stroke="white" points="208.64,-192.28 198.05,-192.03 206.18,-198.83 208.64,-192.28"/>
</g>
<!-- b_p7zip -->
<g id="node15" class="node">
<title>b_p7zip</title>
<polygon fill="none" stroke="white" points="281.5,-192 216.5,-192 216.5,-156 281.5,-156 281.5,-192"/>
<text text-anchor="middle" x="249" y="-170.2" font-family="monospace" font-size="16.00" fill="white">p7zip</text>
</g>
<!-- tools&#45;&gt;b_p7zip -->
<g id="edge14" class="edge">
<title>tools&#45;&gt;b_p7zip</title>
<path fill="none" stroke="white" d="M436.8,-240.48C400.73,-231.78 345.78,-217.22 290.54,-195.88"/>
<polygon fill="white" stroke="white" points="291.54,-192.51 280.96,-192.11 288.98,-199.03 291.54,-192.51"/>
</g>
<!-- b_graphviz -->
<g id="node16" class="node">
<title>b_graphviz</title>
<polygon fill="none" stroke="white" points="394.5,-192 299.5,-192 299.5,-156 394.5,-156 394.5,-192"/>
<text text-anchor="middle" x="347" y="-170.2" font-family="monospace" font-size="16.00" fill="white">graphviz</text>
</g>
<!-- tools&#45;&gt;b_graphviz -->
<g id="edge15" class="edge">
<title>tools&#45;&gt;b_graphviz</title>
<path fill="none" stroke="white" d="M450.82,-234.87C432.22,-224.14 406.55,-209.34 385.39,-197.14"/>
<polygon fill="white" stroke="white" points="387.05,-194.05 376.64,-192.09 383.55,-200.12 387.05,-194.05"/>
</g>
<!-- b_bat -->
<g id="node17" class="node">
<title>b_bat</title>
<polygon fill="none" stroke="white" points="467,-192 413,-192 413,-156 467,-156 467,-192"/>
<text text-anchor="middle" x="440" y="-170.2" font-family="monospace" font-size="16.00" fill="white">bat</text>
</g>
<!-- tools&#45;&gt;b_bat -->
<g id="edge16" class="edge">
<title>tools&#45;&gt;b_bat</title>
<path fill="none" stroke="white" d="M467.65,-232.13C463.24,-223.03 457.74,-211.65 452.81,-201.46"/>
<polygon fill="white" stroke="white" points="455.81,-199.64 448.3,-192.16 449.51,-202.68 455.81,-199.64"/>
</g>
<!-- b_fzf -->
<g id="node18" class="node">
<title>b_fzf</title>
<polygon fill="none" stroke="white" points="539,-192 485,-192 485,-156 539,-156 539,-192"/>
<text text-anchor="middle" x="512" y="-170.2" font-family="monospace" font-size="16.00" fill="white">fzf</text>
</g>
<!-- tools&#45;&gt;b_fzf -->
<g id="edge17" class="edge">
<title>tools&#45;&gt;b_fzf</title>
<path fill="none" stroke="white" d="M484.35,-232.13C488.76,-223.03 494.26,-211.65 499.19,-201.46"/>
<polygon fill="white" stroke="white" points="502.49,-202.68 503.7,-192.16 496.19,-199.64 502.49,-202.68"/>
</g>
<!-- c_keycastr -->
<g id="node19" class="node">
<title>c_keycastr</title>
<polygon fill="#ffffff" fill-opacity="0.133333" stroke="white" points="720.5,-192 557.5,-192 557.5,-156 720.5,-156 720.5,-192"/>
<text text-anchor="middle" x="639" y="-170.2" font-family="monospace" font-size="16.00" fill="white">keycastr (cask)</text>
</g>
<!-- tools&#45;&gt;c_keycastr -->
<g id="edge18" class="edge">
<title>tools&#45;&gt;c_keycastr</title>
<path fill="none" stroke="white" d="M505.14,-236.09C529.33,-225.05 564.19,-209.14 592.27,-196.33"/>
<polygon fill="white" stroke="white" points="593.86,-199.45 601.51,-192.11 590.95,-193.08 593.86,-199.45"/>
</g>
<!-- vim&#45;&gt;font -->
<g id="edge19" class="edge">
<title>vim&#45;&gt;font</title>
<path fill="none" stroke="white" d="M1683.24,-233.24C1691.41,-223.27 1702.06,-210.29 1711.22,-199.12"/>
<polygon fill="white" stroke="white" points="1713.94,-201.32 1717.58,-191.37 1708.53,-196.88 1713.94,-201.32"/>
</g>
<!-- main_shell&#45;&gt;tools -->
<g id="edge20" class="edge">
<title>main_shell&#45;&gt;tools</title>
<path fill="none" stroke="white" d="M1445,-317.01C1244.67,-303.44 705.62,-266.93 531.24,-255.13"/>
<polygon fill="white" stroke="white" points="531.23,-251.62 521.01,-254.43 530.75,-258.6 531.23,-251.62"/>
</g>
<!-- main_shell&#45;&gt;vim -->
<g id="edge21" class="edge">
<title>main_shell&#45;&gt;vim</title>
<path fill="none" stroke="white" d="M1554.44,-306.27C1578.98,-294.62 1612.17,-278.85 1636.68,-267.21"/>
<polygon fill="white" stroke="white" points="1638.41,-270.26 1645.94,-262.81 1635.41,-263.94 1638.41,-270.26"/>
</g>
<!-- main_shell&#45;&gt;git -->
<g id="edge22" class="edge">
<title>main_shell&#45;&gt;git</title>
<path fill="none" stroke="white" d="M1495.63,-305.66C1464.93,-284.26 1414.11,-243.93 1388,-196 1375.64,-173.32 1371.18,-143.99 1369.64,-122.79"/>
<polygon fill="white" stroke="white" points="1373.12,-122.31 1369.08,-112.52 1366.13,-122.7 1373.12,-122.31"/>
</g>
<!-- kitty -->
<g id="node20" class="node">
<title>kitty</title>
<ellipse fill="none" stroke="white" cx="1527" cy="-250.38" rx="45.92" ry="18.27"/>
<text text-anchor="middle" x="1527" y="-246.58" font-family="monospace" font-size="16.00" fill="white">kitty</text>
</g>
<!-- main_shell&#45;&gt;kitty -->
<g id="edge23" class="edge">
<title>main_shell&#45;&gt;kitty</title>
<path fill="none" stroke="white" d="M1522.48,-304.66C1523.13,-296.98 1523.92,-287.77 1524.64,-279.19"/>
<polygon fill="white" stroke="white" points="1528.13,-279.43 1525.49,-269.17 1521.16,-278.84 1528.13,-279.43"/>
</g>
<!-- prompt -->
<g id="node21" class="node">
<title>prompt</title>
<ellipse fill="none" stroke="white" cx="1249" cy="-250.38" rx="53.07" ry="18.27"/>
<text text-anchor="middle" x="1249" y="-246.58" font-family="monospace" font-size="16.00" fill="white">prompt</text>
</g>
<!-- main_shell&#45;&gt;prompt -->
<g id="edge24" class="edge">
<title>main_shell&#45;&gt;prompt</title>
<path fill="none" stroke="white" d="M1469.84,-308.84C1421.28,-296.21 1348.69,-277.32 1300.14,-264.69"/>
<polygon fill="white" stroke="white" points="1300.72,-261.22 1290.16,-262.09 1298.96,-268 1300.72,-261.22"/>
</g>
<!-- window_mgr -->
<g id="node22" class="node">
<title>window_mgr</title>
<ellipse fill="none" stroke="white" cx="2197" cy="-250.38" rx="80.72" ry="18.27"/>
<text text-anchor="middle" x="2197" y="-246.58" font-family="monospace" font-size="16.00" fill="white">window_mgr</text>
</g>
<!-- main_desktop&#45;&gt;window_mgr -->
<g id="edge25" class="edge">
<title>main_desktop&#45;&gt;window_mgr</title>
<path fill="none" stroke="white" d="M2063.6,-306.27C2089.29,-295.7 2123.2,-281.75 2150.39,-270.56"/>
<polygon fill="white" stroke="white" points="2151.79,-273.77 2159.71,-266.73 2149.13,-267.3 2151.79,-273.77"/>
</g>
<!-- hotkeys -->
<g id="node23" class="node">
<title>hotkeys</title>
<ellipse fill="none" stroke="white" cx="2544" cy="-250.38" rx="60.21" ry="18.27"/>
<text text-anchor="middle" x="2544" y="-246.58" font-family="monospace" font-size="16.00" fill="white">hotkeys</text>
</g>
<!-- main_desktop&#45;&gt;hotkeys -->
<g id="edge26" class="edge">
<title>main_desktop&#45;&gt;hotkeys</title>
<path fill="none" stroke="white" d="M2100.19,-311.9C2202.51,-297.95 2383.85,-273.22 2480,-260.11"/>
<polygon fill="white" stroke="white" points="2480.73,-263.54 2490.17,-258.73 2479.78,-256.61 2480.73,-263.54"/>
</g>
<!-- bartender -->
<g id="node24" class="node">
<title>bartender</title>
<ellipse fill="none" stroke="white" cx="2025" cy="-250.38" rx="73.58" ry="18.27"/>
<text text-anchor="middle" x="2025" y="-246.58" font-family="monospace" font-size="16.00" fill="white">bartender</text>
</g>
<!-- main_desktop&#45;&gt;bartender -->
<g id="edge27" class="edge">
<title>main_desktop&#45;&gt;bartender</title>
<path fill="none" stroke="white" d="M2025,-304.66C2025,-296.98 2025,-287.77 2025,-279.19"/>
<polygon fill="white" stroke="white" points="2028.5,-279.17 2025,-269.17 2021.5,-279.17 2028.5,-279.17"/>
</g>
<!-- vscode -->
<g id="node25" class="node">
<title>vscode</title>
<ellipse fill="none" stroke="white" cx="1880" cy="-250.38" rx="53.07" ry="18.27"/>
<text text-anchor="middle" x="1880" y="-246.58" font-family="monospace" font-size="16.00" fill="white">vscode</text>
</g>
<!-- main_desktop&#45;&gt;vscode -->
<g id="edge28" class="edge">
<title>main_desktop&#45;&gt;vscode</title>
<path fill="none" stroke="white" d="M1991.73,-305.92C1969.98,-295.3 1941.49,-281.39 1918.72,-270.28"/>
<polygon fill="white" stroke="white" points="1920.19,-267.1 1909.67,-265.86 1917.12,-273.4 1920.19,-267.1"/>
</g>
<!-- b_cloc -->
<g id="node26" class="node">
<title>b_cloc</title>
<polygon fill="none" stroke="white" points="1397,-36 1341,-36 1341,0 1397,0 1397,-36"/>
<text text-anchor="middle" x="1369" y="-14.2" font-family="monospace" font-size="16.00" fill="white">cloc</text>
</g>
<!-- git&#45;&gt;b_cloc -->
<g id="edge29" class="edge">
<title>git&#45;&gt;b_cloc</title>
<path fill="none" stroke="white" d="M1369,-75.46C1369,-66.74 1369,-55.99 1369,-46.23"/>
<polygon fill="white" stroke="white" points="1372.5,-46.16 1369,-36.16 1365.5,-46.16 1372.5,-46.16"/>
</g>
<!-- kitty&#45;&gt;font -->
<g id="edge30" class="edge">
<title>kitty&#45;&gt;font</title>
<path fill="none" stroke="white" d="M1561.74,-238.23C1593.32,-227.89 1641.11,-211.78 1682,-196 1685.93,-194.48 1690.02,-192.84 1694.08,-191.16"/>
<polygon fill="white" stroke="white" points="1695.55,-194.34 1703.42,-187.24 1692.84,-187.89 1695.55,-194.34"/>
</g>
<!-- b_imagemagick -->
<g id="node27" class="node">
<title>b_imagemagick</title>
<polygon fill="none" stroke="white" points="1673,-192 1549,-192 1549,-156 1673,-156 1673,-192"/>
<text text-anchor="middle" x="1611" y="-170.2" font-family="monospace" font-size="16.00" fill="white">imagemagick</text>
</g>
<!-- kitty&#45;&gt;b_imagemagick -->
<g id="edge31" class="edge">
<title>kitty&#45;&gt;b_imagemagick</title>
<path fill="none" stroke="white" d="M1545.23,-233.24C1556.58,-223.2 1571.38,-210.09 1584.06,-198.85"/>
<polygon fill="white" stroke="white" points="1586.47,-201.39 1591.64,-192.14 1581.83,-196.15 1586.47,-201.39"/>
</g>
<!-- c_kitty -->
<g id="node28" class="node">
<title>c_kitty</title>
<polygon fill="#ffffff" fill-opacity="0.133333" stroke="white" points="1531,-192 1397,-192 1397,-156 1531,-156 1531,-192"/>
<text text-anchor="middle" x="1464" y="-170.2" font-family="monospace" font-size="16.00" fill="white">kitty (cask)</text>
</g>
<!-- kitty&#45;&gt;c_kitty -->
<g id="edge32" class="edge">
<title>kitty&#45;&gt;c_kitty</title>
<path fill="none" stroke="white" d="M1512.7,-232.51C1504.55,-222.87 1494.17,-210.62 1485.09,-199.9"/>
<polygon fill="white" stroke="white" points="1487.59,-197.44 1478.46,-192.07 1482.25,-201.96 1487.59,-197.44"/>
</g>
<!-- git&#45;status -->
<g id="node29" class="node">
<title>git&#45;status</title>
<ellipse fill="none" stroke="white" cx="1064" cy="-174" rx="80.72" ry="18.27"/>
<text text-anchor="middle" x="1064" y="-170.2" font-family="monospace" font-size="16.00" fill="white">git&#45;status</text>
</g>
<!-- prompt&#45;&gt;git&#45;status -->
<g id="edge33" class="edge">
<title>prompt&#45;&gt;git&#45;status</title>
<path fill="none" stroke="white" d="M1215.5,-235.91C1186.4,-224.22 1143.94,-207.14 1111.37,-194.05"/>
<polygon fill="white" stroke="white" points="1112.62,-190.78 1102.04,-190.29 1110.01,-197.27 1112.62,-190.78"/>
</g>
<!-- aqi -->
<g id="node30" class="node">
<title>aqi</title>
<ellipse fill="none" stroke="white" cx="1308" cy="-174" rx="32.55" ry="18.27"/>
<text text-anchor="middle" x="1308" y="-170.2" font-family="monospace" font-size="16.00" fill="white">aqi</text>
</g>
<!-- prompt&#45;&gt;aqi -->
<g id="edge34" class="edge">
<title>prompt&#45;&gt;aqi</title>
<path fill="none" stroke="white" d="M1262.39,-232.51C1270.24,-222.6 1280.3,-209.92 1288.97,-198.99"/>
<polygon fill="white" stroke="white" points="1291.8,-201.06 1295.27,-191.05 1286.32,-196.71 1291.8,-201.06"/>
</g>
<!-- b_starship -->
<g id="node31" class="node">
<title>b_starship</title>
<polygon fill="none" stroke="white" points="1257.5,-192 1162.5,-192 1162.5,-156 1257.5,-156 1257.5,-192"/>
<text text-anchor="middle" x="1210" y="-170.2" font-family="monospace" font-size="16.00" fill="white">starship</text>
</g>
<!-- prompt&#45;&gt;b_starship -->
<g id="edge35" class="edge">
<title>prompt&#45;&gt;b_starship</title>
<path fill="none" stroke="white" d="M1239.95,-232.13C1235.13,-222.93 1229.1,-211.42 1223.71,-201.15"/>
<polygon fill="white" stroke="white" points="1226.74,-199.39 1219,-192.16 1220.54,-202.64 1226.74,-199.39"/>
</g>
<!-- c_itsycal -->
<g id="node32" class="node">
<title>c_itsycal</title>
<polygon fill="#ffffff" fill-opacity="0.133333" stroke="white" points="2273.5,-192 2120.5,-192 2120.5,-156 2273.5,-156 2273.5,-192"/>
<text text-anchor="middle" x="2197" y="-170.2" font-family="monospace" font-size="16.00" fill="white">itsycal (cask)</text>
</g>
<!-- window_mgr&#45;&gt;c_itsycal -->
<g id="edge36" class="edge">
<title>window_mgr&#45;&gt;c_itsycal</title>
<path fill="none" stroke="white" d="M2197,-231.76C2197,-222.99 2197,-212.19 2197,-202.37"/>
<polygon fill="white" stroke="white" points="2200.5,-202.24 2197,-192.25 2193.5,-202.25 2200.5,-202.24"/>
</g>
<!-- c_karabiner&#45;elements -->
<g id="node33" class="node">
<title>c_karabiner&#45;elements</title>
<polygon fill="#ffffff" fill-opacity="0.133333" stroke="white" points="2552,-192 2292,-192 2292,-156 2552,-156 2552,-192"/>
<text text-anchor="middle" x="2422" y="-170.2" font-family="monospace" font-size="16.00" fill="white">karabiner&#45;elements (cask)</text>
</g>
<!-- hotkeys&#45;&gt;c_karabiner&#45;elements -->
<g id="edge37" class="edge">
<title>hotkeys&#45;&gt;c_karabiner&#45;elements</title>
<path fill="none" stroke="white" d="M2518.13,-233.61C2500.86,-223.08 2477.89,-209.08 2458.74,-197.4"/>
<polygon fill="white" stroke="white" points="2460.32,-194.27 2449.96,-192.05 2456.68,-200.24 2460.32,-194.27"/>
</g>
<!-- c_hammerspoon -->
<g id="node34" class="node">
<title>c_hammerspoon</title>
<polygon fill="#ffffff" fill-opacity="0.133333" stroke="white" points="2762,-192 2570,-192 2570,-156 2762,-156 2762,-192"/>
<text text-anchor="middle" x="2666" y="-170.2" font-family="monospace" font-size="16.00" fill="white">hammerspoon (cask)</text>
</g>
<!-- hotkeys&#45;&gt;c_hammerspoon -->
<g id="edge38" class="edge">
<title>hotkeys&#45;&gt;c_hammerspoon</title>
<path fill="none" stroke="white" d="M2569.87,-233.61C2587.14,-223.08 2610.11,-209.08 2629.26,-197.4"/>
<polygon fill="white" stroke="white" points="2631.32,-200.24 2638.04,-192.05 2627.68,-194.27 2631.32,-200.24"/>
</g>
<!-- b_git@github.com:Hammerspoon/Spoons.git -->
<g id="node35" class="node">
<title>b_git@github.com:Hammerspoon/Spoons.git</title>
<polygon fill="none" stroke="white" points="2976,-192 2784,-192 2784,-156 2976,-156 2976,-192"/>
<polygon fill="none" stroke="white" points="2980,-196 2780,-196 2780,-152 2980,-152 2980,-196"/>
<text text-anchor="middle" x="2880" y="-170.2" font-family="monospace" font-size="16.00" fill="white">Hammerspoon/Spoons</text>
</g>
<!-- hotkeys&#45;&gt;b_git@github.com:Hammerspoon/Spoons.git -->
<g id="edge39" class="edge">
<title>hotkeys&#45;&gt;b_git@github.com:Hammerspoon/Spoons.git</title>
<path fill="none" stroke="white" d="M2591.43,-238.89C2638.89,-228.38 2713.5,-211.86 2774.96,-198.25"/>
<polygon fill="white" stroke="white" points="2776.09,-201.59 2785.1,-196.01 2774.58,-194.75 2776.09,-201.59"/>
</g>
<!-- b_git@github.com:junosuarez/rcbartender.git -->
<g id="node36" class="node">
<title>b_git@github.com:junosuarez/rcbartender.git</title>
<polygon fill="none" stroke="white" points="2098.5,-192 1867.5,-192 1867.5,-156 2098.5,-156 2098.5,-192"/>
<polygon fill="none" stroke="white" points="2102.5,-196 1863.5,-196 1863.5,-152 2102.5,-152 2102.5,-196"/>
<text text-anchor="middle" x="1983" y="-170.2" font-family="monospace" font-size="16.00" fill="white">junosuarez/rcbartender</text>
</g>
<!-- bartender&#45;&gt;b_git@github.com:junosuarez/rcbartender.git -->
<g id="edge40" class="edge">
<title>bartender&#45;&gt;b_git@github.com:junosuarez/rcbartender.git</title>
<path fill="none" stroke="white" d="M2015.26,-232.13C2010.72,-224.09 2005.17,-214.27 1999.97,-205.06"/>
<polygon fill="white" stroke="white" points="2002.9,-203.13 1994.94,-196.14 1996.81,-206.57 2002.9,-203.13"/>
</g>
<!-- vscode&#45;&gt;font -->
<g id="edge41" class="edge">
<title>vscode&#45;&gt;font</title>
<path fill="none" stroke="white" d="M1850.92,-234.87C1826.63,-222.74 1791.93,-205.42 1766.1,-192.52"/>
<polygon fill="white" stroke="white" points="1767.53,-189.32 1757.02,-187.99 1764.4,-195.59 1767.53,-189.32"/>
</g>
<!-- git&#45;status&#45;&gt;git -->
<g id="edge42" class="edge">
<title>git&#45;status&#45;&gt;git</title>
<path fill="none" stroke="white" d="M1115.74,-159.77C1176.41,-144.25 1275.6,-118.89 1330.1,-104.95"/>
<polygon fill="white" stroke="white" points="1331.24,-108.27 1340.06,-102.4 1329.5,-101.49 1331.24,-108.27"/>
</g>
<!-- b_romkatv/gitstatus/gitstatus -->
<g id="node37" class="node">
<title>b_romkatv/gitstatus/gitstatus</title>
<polygon fill="none" stroke="white" points="1204,-112 924,-112 924,-76 1204,-76 1204,-112"/>
<text text-anchor="middle" x="1064" y="-90.2" font-family="monospace" font-size="16.00" fill="white">romkatv/gitstatus/gitstatus</text>
</g>
<!-- git&#45;status&#45;&gt;b_romkatv/gitstatus/gitstatus -->
<g id="edge43" class="edge">
<title>git&#45;status&#45;&gt;b_romkatv/gitstatus/gitstatus</title>
<path fill="none" stroke="white" d="M1064,-155.3C1064,-145.59 1064,-133.34 1064,-122.42"/>
<polygon fill="white" stroke="white" points="1067.5,-122.09 1064,-112.09 1060.5,-122.09 1067.5,-122.09"/>
</g>
<!-- l1 -->
<g id="node38" class="node">
<title>l1</title>
<polygon fill="none" stroke="white" points="2084,-417.54 2028,-417.54 2028,-381.54 2084,-381.54 2084,-417.54"/>
<text text-anchor="middle" x="2056" y="-395.74" font-family="monospace" font-size="16.00" fill="white">brew</text>
</g>
<!-- l2 -->
<g id="node39" class="node">
<title>l2</title>
<ellipse fill="none" stroke="white" cx="1957" cy="-399.54" rx="53.07" ry="18.27"/>
<text text-anchor="middle" x="1957" y="-395.74" font-family="monospace" font-size="16.00" fill="white">module</text>
</g>
<!-- l3 -->
<g id="node40" class="node">
<title>l3</title>
<polygon fill="none" stroke="white" points="1882,-417.54 1828,-417.54 1828,-381.54 1882,-381.54 1882,-417.54"/>
<polygon fill="none" stroke="white" points="1886,-421.54 1824,-421.54 1824,-377.54 1886,-377.54 1886,-421.54"/>
<text text-anchor="middle" x="1855" y="-395.74" font-family="monospace" font-size="16.00" fill="white">git</text>
</g>
</g>
</svg>
